<svg width="24" height="24" viewBox="0 0 24 24" fill="none" xmlns="http://www.w3.org/2000/svg">
<path d="M9.6 3.31996C8.83614 3.31996 8.08945 3.5466 7.45446 3.97119C6.81947 4.39577 6.32474 4.99921 6.03288 5.70512C5.74102 6.41103 5.66517 7.18766 5.81492 7.93669C5.96467 8.68573 6.33329 9.3735 6.87412 9.91293C7.41495 10.4524 8.10368 10.8192 8.8531 10.967C9.60252 11.1148 10.379 11.0369 11.0841 10.7433C11.7892 10.4496 12.3914 9.95327 12.8143 9.31718C13.2373 8.68109 13.462 7.93382 13.46 7.16996C13.46 6.66353 13.3601 6.16207 13.166 5.69431C12.9719 5.22656 12.6874 4.80169 12.3288 4.44406C11.9703 4.08642 11.5447 3.80304 11.0764 3.61015C10.6081 3.41726 10.1064 3.31864 9.6 3.31996ZM16.35 11C16.2906 11.0011 16.2334 11.0226 16.1879 11.0608C16.1424 11.099 16.1114 11.1517 16.1 11.21L15.92 12.48C15.6322 12.6019 15.3574 12.7527 15.1 12.93L13.9 12.45C13.8428 12.4403 13.784 12.4474 13.7307 12.4705C13.6775 12.4936 13.6321 12.5316 13.6 12.58L12.6 14.24C12.5708 14.2901 12.5608 14.3492 12.5718 14.4062C12.5829 14.4632 12.6142 14.5143 12.66 14.55L13.66 15.34C13.6175 15.6719 13.6175 16.008 13.66 16.34L12.66 17.13C12.615 17.1639 12.5839 17.2132 12.5729 17.2685C12.5618 17.3238 12.5715 17.3813 12.6 17.43L13.6 19.1C13.66 19.23 13.79 19.23 13.9 19.23L15.1 18.74C15.3535 18.9262 15.6289 19.0807 15.92 19.2L16.1 20.47C16.1098 20.5282 16.1407 20.5808 16.1868 20.6177C16.2329 20.6546 16.291 20.6732 16.35 20.67H18.28C18.3356 20.6684 18.3889 20.6476 18.4308 20.6112C18.4728 20.5747 18.5008 20.5248 18.51 20.47L18.69 19.2C18.9737 19.0722 19.2449 18.9182 19.5 18.74L20.69 19.23C20.81 19.23 20.94 19.23 21.01 19.1L22.01 17.43C22.0385 17.3813 22.0482 17.3238 22.0371 17.2685C22.0261 17.2132 21.995 17.1639 21.95 17.13L20.95 16.34C20.96 16.1768 20.96 16.0131 20.95 15.85C20.9644 15.6903 20.9644 15.5296 20.95 15.37L21.95 14.58C21.9941 14.5431 22.0242 14.4921 22.0351 14.4356C22.0461 14.3792 22.0372 14.3206 22.01 14.27L21.01 12.61C20.95 12.48 20.82 12.48 20.7 12.48L19.5 13C19.2449 12.8189 18.9697 12.6679 18.68 12.55L18.5 11.28C18.4952 11.2242 18.4702 11.1721 18.4297 11.1334C18.3892 11.0947 18.3359 11.0722 18.28 11.07H16.46M9.71 13C5.45 13 2 14.7 2 16.83V18.75H11.33C10.909 17.8606 10.6907 16.8889 10.6907 15.905C10.6907 14.921 10.909 13.9493 11.33 13.06C10.7917 13.0077 10.2507 12.9876 9.71 13ZM17.31 14.43C17.5099 14.4133 17.711 14.4383 17.9007 14.5034C18.0904 14.5684 18.2646 14.6722 18.4122 14.808C18.5597 14.9438 18.6775 15.1087 18.7581 15.2924C18.8387 15.476 18.8803 15.6744 18.8803 15.875C18.8803 16.0755 18.8387 16.2739 18.7581 16.4575C18.6775 16.6412 18.5597 16.8061 18.4122 16.942C18.2646 17.0778 18.0904 17.1815 17.9007 17.2465C17.711 17.3116 17.5099 17.3366 17.31 17.32C16.9475 17.2898 16.6096 17.1245 16.3633 16.8568C16.117 16.5891 15.9803 16.2387 15.9803 15.875C15.9803 15.5112 16.117 15.1608 16.3633 14.8931C16.6096 14.6255 16.9475 14.4601 17.31 14.43Z" fill="#444444"/>
</svg>
