<svg width="18" height="17" viewBox="0 0 18 17" fill="none" xmlns="http://www.w3.org/2000/svg">
<g opacity="0.5">
<path d="M8.99994 16.6458C9.53115 16.6449 10.0449 16.4667 10.4505 16.1426C10.856 15.8186 11.1272 15.3696 11.2162 14.875H6.78369C6.87267 15.3696 7.14389 15.8186 7.54943 16.1426C7.95497 16.4667 8.46873 16.6449 8.99994 16.6458Z" fill="#212121"/>
<path d="M16.4303 13.6067C16.4123 13.583 14.625 11.1917 14.625 9.20835V5.66669C14.625 4.25772 14.0324 2.90647 12.9775 1.91018C11.9226 0.913895 10.4919 0.354187 9.00004 0.354187C7.50819 0.354187 6.07745 0.913895 5.02256 1.91018C3.96767 2.90647 3.37504 4.25772 3.37504 5.66669V9.20835C3.37504 11.1917 1.58779 13.583 1.56979 13.6067C1.52976 13.6597 1.50595 13.7221 1.50098 13.787C1.49601 13.8519 1.51006 13.9168 1.5416 13.9746C1.57313 14.0325 1.62093 14.081 1.67976 14.1149C1.73858 14.1488 1.80614 14.1667 1.87504 14.1667H16.125C16.1939 14.1667 16.2615 14.1488 16.3203 14.1149C16.3791 14.081 16.4269 14.0325 16.4585 13.9746C16.49 13.9168 16.5041 13.8519 16.4991 13.787C16.4941 13.7221 16.4703 13.6597 16.4303 13.6067Z" fill="#212121"/>
</g>
</svg>
