<svg width="15" height="15" viewBox="0 0 15 15" fill="none" xmlns="http://www.w3.org/2000/svg">
<path d="M4.375 4.375H6.875M4.375 6.875H6.875M6.875 13.125V9.375H4.375V13.125H6.875Z" stroke="#555555" stroke-linecap="round" stroke-linejoin="round"/>
<path d="M9.375 13.125H1.875V2.5C1.875 2.33424 1.94085 2.17527 2.05806 2.05806C2.17527 1.94085 2.33424 1.875 2.5 1.875H8.75C8.91576 1.875 9.07473 1.94085 9.19194 2.05806C9.30915 2.17527 9.375 2.33424 9.375 2.5V13.125ZM9.375 13.125H13.125V5.45C13.1321 5.31371 13.0944 5.17884 13.0177 5.06598C12.9409 4.95312 12.8294 4.86849 12.7 4.825L9.375 3.75V13.125Z" stroke="#555555" stroke-linecap="round" stroke-linejoin="round"/>
</svg>
