<svg width="20" height="21" viewBox="0 0 20 21" fill="none" xmlns="http://www.w3.org/2000/svg">
<g clip-path="url(#clip0_1_179)">
<path opacity="0.94" fill-rule="evenodd" clip-rule="evenodd" d="M5.13673 -0.0205078C5.25392 -0.0205078 5.3711 -0.0205078 5.48829 -0.0205078C5.58786 0.0638109 5.64646 0.173186 5.66407 0.307617C5.69013 1.49707 5.69013 2.68652 5.66407 3.87598C5.57138 4.17765 5.38259 4.26653 5.09767 4.14258C5.05075 4.10554 5.01817 4.05771 5.00001 3.99902C4.97396 2.71387 4.97396 1.42871 5.00001 0.143555C5.05376 0.094128 5.09931 0.0394406 5.13673 -0.0205078Z" fill="#444444"/>
<path opacity="0.939" fill-rule="evenodd" clip-rule="evenodd" d="M8.457 -0.0205078C8.57419 -0.0205078 8.69138 -0.0205078 8.80857 -0.0205078C8.99962 0.126851 9.04517 0.318257 8.94528 0.553711C8.51122 0.915079 8.08806 1.29105 7.67575 1.68164C10.8789 1.70899 14.082 1.70899 17.2851 1.68164C16.8728 1.29105 16.4497 0.915079 16.0156 0.553711C15.9157 0.318257 15.9613 0.126851 16.1523 -0.0205078C16.2695 -0.0205078 16.3867 -0.0205078 16.5039 -0.0205078C17.1751 0.608873 17.8652 1.21727 18.5742 1.80469C18.7037 2.05656 18.6647 2.27531 18.457 2.46094C17.832 3.00781 17.207 3.55469 16.582 4.10156C16.2601 4.29466 16.0518 4.20578 15.957 3.83496C15.96 3.76117 15.9795 3.69282 16.0156 3.62988C16.4403 3.22485 16.8765 2.8352 17.3242 2.46094C14.095 2.43359 10.8659 2.43359 7.63669 2.46094C7.98107 2.77154 8.33263 3.07232 8.69138 3.36328C8.80357 3.46732 8.90122 3.58353 8.98435 3.71191C8.97997 4.16907 8.77814 4.29893 8.37888 4.10156C7.70829 3.50684 7.03775 2.91211 6.36716 2.31738C6.27474 2.12305 6.29427 1.94531 6.42575 1.78418C7.11603 1.19587 7.7931 0.594308 8.457 -0.0205078Z" fill="#444444"/>
<path opacity="0.94" fill-rule="evenodd" clip-rule="evenodd" d="M19.4727 -0.0205078C19.5899 -0.0205078 19.707 -0.0205078 19.8242 -0.0205078C19.8633 0.0478517 19.9154 0.102539 19.9805 0.143555C19.9805 1.42871 19.9805 2.71387 19.9805 3.99902C19.8401 4.19963 19.6579 4.24746 19.4336 4.14258C19.3626 4.06876 19.317 3.97989 19.2969 3.87598C19.2708 2.68652 19.2708 1.49707 19.2969 0.307617C19.3145 0.173186 19.3731 0.0638109 19.4727 -0.0205078Z" fill="#444444"/>
<path opacity="0.94" fill-rule="evenodd" clip-rule="evenodd" d="M-0.0195312 5.76271C-0.0195312 5.63966 -0.0195312 5.51661 -0.0195312 5.39356C0.0375625 5.35427 0.0896457 5.30645 0.136719 5.25001C1.36068 5.22265 2.58464 5.22265 3.80859 5.25001C4.00203 5.38946 4.04758 5.57403 3.94531 5.80372C3.87501 5.87825 3.79037 5.92611 3.69141 5.94728C2.55859 5.97463 1.42578 5.97463 0.292969 5.94728C0.164939 5.92878 0.0607723 5.86725 -0.0195312 5.76271Z" fill="#444444"/>
<path opacity="0.992" fill-rule="evenodd" clip-rule="evenodd" d="M6.11328 5.96776C10.3515 5.91994 14.5963 5.91309 18.8477 5.94725C16.7312 8.17633 14.6088 10.398 12.4805 12.6123C10.3573 10.3966 8.23484 8.18174 6.11328 5.96776Z" fill="#444444"/>
<path opacity="0.992" fill-rule="evenodd" clip-rule="evenodd" d="M5.64454 6.41895C7.77915 8.63293 9.90153 10.8614 12.0117 13.1045C9.9029 15.3393 7.787 17.5678 5.66407 19.79C5.64454 15.333 5.63801 10.876 5.64454 6.41895Z" fill="#444444"/>
<path opacity="0.992" fill-rule="evenodd" clip-rule="evenodd" d="M19.2773 6.41895C19.3229 10.8691 19.3294 15.3261 19.2969 19.79C17.1739 17.5678 15.058 15.3393 12.9492 13.1045C15.0594 10.8751 17.1688 8.64659 19.2773 6.41895Z" fill="#444444"/>
<path opacity="0.94" fill-rule="evenodd" clip-rule="evenodd" d="M-0.0195312 17.3291C-0.0195312 17.2061 -0.0195312 17.083 -0.0195312 16.96C0.12081 16.7594 0.303102 16.7115 0.527344 16.8164C0.871504 17.2722 1.22957 17.7165 1.60156 18.1494C1.62761 14.7861 1.62761 11.4229 1.60156 8.05957C1.22957 8.49249 0.871504 8.93682 0.527344 9.39258C0.303102 9.49746 0.12081 9.44963 -0.0195312 9.24903C-0.0195312 9.12598 -0.0195312 9.00293 -0.0195312 8.87989C0.579879 8.17511 1.1593 7.45049 1.71875 6.70606C1.95863 6.57005 2.16696 6.61106 2.34375 6.8291C2.86458 7.48535 3.38542 8.1416 3.90625 8.79785C4.09016 9.13586 4.00551 9.3546 3.65234 9.4541C3.58207 9.45095 3.51697 9.43044 3.45703 9.39258C3.07129 8.94662 2.7002 8.48864 2.34375 8.01856C2.31771 11.4092 2.31771 14.7998 2.34375 18.1904C2.63956 17.8288 2.92602 17.4597 3.20312 17.083C3.30221 16.9652 3.41289 16.8627 3.53516 16.7754C3.97055 16.78 4.09422 16.9919 3.90625 17.4111C3.33984 18.1153 2.77344 18.8193 2.20703 19.5234C2.03981 19.6099 1.87705 19.6031 1.71875 19.5029C1.1593 18.7585 0.579879 18.0339 -0.0195312 17.3291Z" fill="#444444"/>
<path opacity="0.992" fill-rule="evenodd" clip-rule="evenodd" d="M12.4414 13.5967C14.5931 15.7944 16.7285 18.0161 18.8477 20.2617C14.6029 20.2891 10.3581 20.2891 6.11328 20.2617C8.23051 18.0454 10.3399 15.8238 12.4414 13.5967Z" fill="#444444"/>
<path opacity="0.94" fill-rule="evenodd" clip-rule="evenodd" d="M3.80859 20.9795C2.58464 20.9795 1.36068 20.9795 0.136719 20.9795C0.0976562 20.9111 0.045573 20.8565 -0.0195312 20.8154C-0.0195312 20.6924 -0.0195312 20.5693 -0.0195312 20.4463C0.0607723 20.3418 0.164939 20.2802 0.292969 20.2617C1.42578 20.2344 2.55859 20.2344 3.69141 20.2617C3.97871 20.3591 4.06336 20.5573 3.94531 20.8565C3.90058 20.903 3.85501 20.9441 3.80859 20.9795Z" fill="#444444"/>
</g>
<defs>
<clipPath id="clip0_1_179">
<rect width="20" height="21" rx="5" fill="white"/>
</clipPath>
</defs>
</svg>
