<svg width="17" height="17" viewBox="0 0 17 17" fill="none" xmlns="http://www.w3.org/2000/svg">
<path d="M6.8624 8.50359L13.2221 2.14366C13.3972 1.96896 13.4935 1.73538 13.4935 1.48633C13.4935 1.23713 13.3972 1.00369 13.2221 0.828715L12.6648 0.271724C12.49 0.0964715 12.2562 0 12.0072 0C11.7581 0 11.5247 0.0964715 11.3497 0.271724L3.77752 7.84377C3.60186 8.0193 3.50566 8.25385 3.50635 8.50318C3.50566 8.75362 3.60172 8.98789 3.77752 9.16355L11.3427 16.7283C11.5176 16.9035 11.7511 17 12.0003 17C12.2493 17 12.4828 16.9035 12.6579 16.7283L13.215 16.1713C13.5775 15.8088 13.5775 15.2186 13.215 14.8562L6.8624 8.50359Z" fill="black"/>
</svg>
