<svg width="8" height="14" viewBox="0 0 8 14" fill="none" xmlns="http://www.w3.org/2000/svg">
<path opacity="0.5" d="M5.94435 7.35334L6.29835 6.99988L5.94472 6.64606L0.654416 1.35286C0.654377 1.35282 0.654339 1.35278 0.6543 1.35274C0.607985 1.30628 0.571275 1.25116 0.546257 1.19053C0.521216 1.12985 0.508378 1.06483 0.508471 0.999203C0.508564 0.933568 0.521586 0.868592 0.546796 0.807984L0.0851417 0.615955L0.546797 0.807982C0.572007 0.747374 0.608913 0.692318 0.655414 0.645958L0.304587 0.294064L0.655415 0.645957C0.701915 0.599598 0.757101 0.562843 0.81782 0.537797C0.878541 0.512752 0.943604 0.499908 1.00929 0.5C1.07498 0.500093 1.14001 0.513122 1.20066 0.538338C1.26131 0.563555 1.31639 0.600465 1.36276 0.646957L1.7153 0.295334L1.36276 0.646958L7.37515 6.67506C7.45794 6.76891 7.50252 6.89051 7.49989 7.0158C7.4972 7.1439 7.44534 7.26608 7.35503 7.35705C7.35491 7.35717 7.35479 7.35729 7.35467 7.35741L1.35826 13.3526L1.35814 13.3527C1.26392 13.447 1.13609 13.5 1.00277 13.5C0.869439 13.5 0.741574 13.4471 0.647295 13.3529C0.553018 13.2588 0.500047 13.131 0.5 12.9978C0.499953 12.8647 0.552755 12.737 0.646834 12.6428C0.646904 12.6427 0.646974 12.6426 0.647044 12.6425L5.94435 7.35334Z" stroke="black"/>
</svg>
