<svg width="28" height="28" viewBox="0 0 28 28" fill="none" xmlns="http://www.w3.org/2000/svg">
<g clip-path="url(#clip0_1_2302)">
<path d="M26.5999 13.0666H25.6666V12.5999C25.6657 11.827 25.0396 11.2008 24.2667 11.2H17.7333C16.9604 11.2008 16.3343 11.827 16.3334 12.5999V13.0666H3.26672V3.73322C3.26566 2.26862 4.39423 1.05097 5.85477 0.940951C7.31509 0.830935 8.61349 1.86573 8.83182 3.31409C7.50201 3.55719 6.53558 4.71482 6.53323 6.06662V6.53318C6.53323 6.79102 6.74237 6.99994 7 6.99994H11.6666C11.9244 6.99994 12.1334 6.79102 12.1334 6.53318V6.06662C12.131 4.69153 11.1313 3.52152 9.77347 3.30469C9.54681 1.33936 7.82608 -0.107511 5.85114 0.00613662C3.87598 0.119998 2.33298 1.75486 2.3334 3.73322V13.0666H1.40009C0.627197 13.0675 0.000854492 13.6936 0 14.4665C0.000854492 15.0584 0.374909 15.5852 0.933319 15.7816V19.5999C0.93866 23.0236 3.58502 25.8633 7 26.1096V26.5999C7 27.3732 7.62677 27.9999 8.40009 27.9999C9.17319 27.9999 9.79996 27.3732 9.79996 26.5999V26.1333H18.2V26.5999C18.2 27.3732 18.8268 27.9999 19.5999 27.9999C20.3732 27.9999 21 27.3732 21 26.5999V26.1096C24.415 25.8633 27.0613 23.0236 27.0667 19.5999V15.7805C27.6245 15.5842 27.9983 15.0578 28 14.4665C27.9964 13.6949 27.3717 13.0703 26.5999 13.0666ZM11.2 6.06662H7.46677C7.46677 5.03568 8.30246 4.19999 9.3334 4.19999C10.3643 4.19999 11.2 5.03568 11.2 6.06662ZM23.8 13.0666V12.5999C23.8 12.3422 24.0089 12.1333 24.2667 12.1333C24.5244 12.1333 24.7333 12.3422 24.7333 12.5999V13.0666H23.8ZM17.2667 12.5999C17.2669 12.3422 17.4756 12.1335 17.7333 12.1333H22.9527C22.8974 12.2826 22.8681 12.4405 22.8666 12.5999V17.7332H18.6666C18.409 17.7332 18.2 17.9421 18.2 18.2C18.2 18.4576 18.409 18.6665 18.6666 18.6665H22.8666V19.5999H17.2667V12.5999ZM8.86664 26.5999C8.86664 26.8577 8.65771 27.0666 8.40009 27.0666C8.14224 27.0666 7.93332 26.8577 7.93332 26.5999V26.1333H8.86664V26.5999ZM20.0667 26.5999C20.0667 26.8577 19.8578 27.0666 19.5999 27.0666C19.3423 27.0666 19.1334 26.8577 19.1334 26.5999V26.1333H20.0667V26.5999ZM20.5332 25.2H7.46677C4.37543 25.1964 1.87027 22.6912 1.86664 19.5999V15.8666H14C14.2576 15.8666 14.4668 15.6577 14.4668 15.3998C14.4668 15.1422 14.2576 14.9333 14 14.9333H1.40009C1.27426 14.9335 1.15399 14.882 1.06769 14.7906C0.980743 14.7053 0.932251 14.5883 0.933319 14.4665C0.933746 14.2089 1.14246 14.0002 1.40009 13.9999H16.3334V19.5999C16.3345 19.9318 16.5122 20.238 16.8 20.4035V21.4665C16.8 21.7243 17.0089 21.9333 17.2667 21.9333C17.5244 21.9333 17.7333 21.7243 17.7333 21.4665V20.5332H18.6666V21.4665C18.6666 21.7243 18.8755 21.9333 19.1334 21.9333C19.391 21.9333 19.5999 21.7243 19.5999 21.4665V20.5332H20.5332V21.4665C20.5332 21.7243 20.7424 21.9333 21 21.9333C21.2576 21.9333 21.4668 21.7243 21.4668 21.4665V20.5332H22.4001V21.4665C22.4001 21.7243 22.609 21.9333 22.8666 21.9333C23.1245 21.9333 23.3334 21.7243 23.3334 21.4665V20.4033C23.6212 20.238 23.7989 19.9318 23.8 19.5999V15.8666H26.1334V19.5999C26.1299 22.6912 23.6248 25.1964 20.5332 25.2ZM26.5999 14.9333H23.8V13.9999H26.5999C26.726 13.9997 26.8462 14.0514 26.9327 14.1429C27.0195 14.2281 27.0677 14.3449 27.0667 14.4665C27.0665 14.7241 26.8575 14.933 26.5999 14.9333Z" fill="#2F3571"/>
<path d="M9.79996 8.3999C9.79996 8.14227 9.59103 7.93335 9.3334 7.93335C9.07556 7.93335 8.86664 8.14227 8.86664 8.3999V8.86667C8.86664 9.1243 9.07556 9.33322 9.3334 9.33322C9.59103 9.33322 9.79996 9.1243 9.79996 8.86667V8.3999Z" fill="#2F3571"/>
<path d="M9.3334 10.2665C9.07556 10.2665 8.86664 10.4756 8.86664 10.7332V11.2C8.86664 11.4576 9.07556 11.6666 9.3334 11.6666C9.59103 11.6666 9.79996 11.4576 9.79996 11.2V10.7332C9.79996 10.4756 9.59103 10.2665 9.3334 10.2665Z" fill="#2F3571"/>
<path d="M7.69343 7.53942L7.3668 7.87288C7.18628 8.05702 7.18927 8.35246 7.37342 8.53297C7.55756 8.71327 7.853 8.71028 8.03351 8.52614L8.36014 8.19289C8.54066 8.00874 8.53745 7.7133 8.35352 7.53279C8.16938 7.35228 7.87372 7.35549 7.69343 7.53942Z" fill="#2F3571"/>
<path d="M6.06006 9.20588L5.73343 9.53934C5.55292 9.72348 5.55591 10.0189 5.74006 10.1992C5.9242 10.3797 6.21964 10.3767 6.40015 10.1926L6.72678 9.85913C6.90729 9.67499 6.9043 9.37955 6.72016 9.19925C6.53602 9.01874 6.24036 9.02173 6.06006 9.20588Z" fill="#2F3571"/>
<path d="M10.3132 7.53295C10.1293 7.71346 10.1265 8.00869 10.3066 8.19305L10.6332 8.5263C10.7501 8.6455 10.9214 8.69335 11.0829 8.6517C11.2444 8.61025 11.3715 8.48571 11.4164 8.32507C11.461 8.16442 11.4168 7.99224 11.3002 7.87304L10.9733 7.53958C10.8868 7.45114 10.7685 7.40072 10.6448 7.39944C10.5209 7.39816 10.4017 7.44622 10.3132 7.53295Z" fill="#2F3571"/>
<path d="M11.9399 9.85938L12.2665 10.1928C12.3833 10.3118 12.5547 10.3597 12.7162 10.3182C12.8777 10.2766 13.0048 10.1523 13.0496 9.99161C13.0943 9.83097 13.0501 9.65857 12.9334 9.53959L12.6066 9.20612C12.4263 9.02198 12.1308 9.01899 11.9467 9.1995C11.7625 9.3798 11.7596 9.67545 11.9399 9.85938Z" fill="#2F3571"/>
<path d="M8.86661 23.3331H7.46674C5.4057 23.3308 3.7356 21.6607 3.73325 19.5999C3.73325 19.3422 3.52432 19.1333 3.26669 19.1333C3.00885 19.1333 2.79993 19.3422 2.79993 19.5999C2.80292 22.1759 4.89044 24.2637 7.46674 24.2664H8.86661C9.12445 24.2664 9.33337 24.0575 9.33337 23.7999C9.33337 23.5421 9.12445 23.3331 8.86661 23.3331Z" fill="#2F3571"/>
<path d="M3.26669 18.2C3.52432 18.2 3.73325 17.9909 3.73325 17.7332V17.2665C3.73325 17.0089 3.52432 16.7999 3.26669 16.7999C3.00885 16.7999 2.79993 17.0089 2.79993 17.2665V17.7332C2.79993 17.9909 3.00885 18.2 3.26669 18.2Z" fill="#2F3571"/>
</g>
<defs>
<clipPath id="clip0_1_2302">
<rect width="28" height="28" fill="white"/>
</clipPath>
</defs>
</svg>
