<svg width="20" height="21" viewBox="0 0 20 21" fill="none" xmlns="http://www.w3.org/2000/svg">
<g clip-path="url(#clip0_1_173)">
<path opacity="0.98" fill-rule="evenodd" clip-rule="evenodd" d="M3.49609 -0.0205078C3.82161 -0.0205078 4.14715 -0.0205078 4.47266 -0.0205078C6.07363 0.348149 6.98512 1.38721 7.20703 3.09668C8.37098 3.39598 9.08059 4.16161 9.33594 5.39355C9.38613 5.84309 9.40566 6.29426 9.39453 6.74707C7.55859 6.74707 5.72266 6.74707 3.88672 6.74707C3.6773 4.92241 4.38043 3.68511 5.99609 3.03516C5.67477 1.75157 4.88051 1.16368 3.61328 1.27148C2.73438 1.4834 2.19401 2.05078 1.99219 2.97363C1.97266 5.46189 1.96614 7.95014 1.97266 10.4385C7.97527 10.4385 13.9779 10.4385 19.9805 10.4385C19.9805 11.2724 19.9805 12.1065 19.9805 12.9404C13.3138 12.9404 6.64715 12.9404 -0.0195312 12.9404C-0.0195312 12.1065 -0.0195312 11.2724 -0.0195312 10.4385C0.240886 10.4385 0.501301 10.4385 0.761719 10.4385C0.743035 7.82582 0.762566 5.21452 0.820312 2.60449C1.20579 1.15366 2.09771 0.278659 3.49609 -0.0205078Z" fill="#444444"/>
<path opacity="0.99" fill-rule="evenodd" clip-rule="evenodd" d="M16.0742 20.9795C15.6706 20.9795 15.2669 20.9795 14.8633 20.9795C14.8633 20.583 14.8633 20.1865 14.8633 19.79C11.6081 19.79 8.35285 19.79 5.09765 19.79C5.09765 20.1865 5.09765 20.583 5.09765 20.9795C4.69402 20.9795 4.29035 20.9795 3.88672 20.9795C3.89968 20.5684 3.88666 20.1583 3.84765 19.749C2.12582 19.3288 1.10368 18.2077 0.781248 16.3857C0.761721 15.6339 0.755209 14.8819 0.761717 14.1299C6.90754 14.1299 13.0534 14.1299 19.1992 14.1299C19.2057 14.8819 19.1992 15.6339 19.1797 16.3857C18.8573 18.2077 17.8351 19.3288 16.1133 19.749C16.0743 20.1583 16.0612 20.5684 16.0742 20.9795Z" fill="#444444"/>
</g>
<defs>
<clipPath id="clip0_1_173">
<rect width="20" height="21" rx="5" fill="white"/>
</clipPath>
</defs>
</svg>
