<svg width="20" height="21" viewBox="0 0 20 21" fill="none" xmlns="http://www.w3.org/2000/svg">
<g clip-path="url(#clip0_1_166)">
<path opacity="0.99" fill-rule="evenodd" clip-rule="evenodd" d="M19.9805 10.7256C19.9805 12.9405 19.9805 15.1553 19.9805 17.3701C19.8246 17.5961 19.6097 17.6918 19.3359 17.6573C19.0473 17.7028 18.8389 17.5934 18.7109 17.3291C18.6914 16.2492 18.6849 15.169 18.6914 14.0889C12.8841 14.0889 7.07684 14.0889 1.26953 14.0889C1.27604 15.169 1.26953 16.2492 1.25 17.3291C1.12202 17.5934 0.913684 17.7028 0.625 17.6573C0.351194 17.6918 0.13635 17.5961 -0.0195312 17.3701C-0.0195312 12.7764 -0.0195312 8.18265 -0.0195312 3.5889C0.13635 3.36299 0.351194 3.26728 0.625 3.30179C0.913684 3.25625 1.12202 3.36562 1.25 3.62991C1.26953 5.91309 1.27604 8.19627 1.26953 10.4795C7.4284 10.4727 13.5873 10.4795 19.7461 10.5C19.8446 10.5558 19.9228 10.631 19.9805 10.7256Z" fill="#444444"/>
<path opacity="0.968" fill-rule="evenodd" clip-rule="evenodd" d="M2.48043 7.77247C3.63935 7.76562 4.7982 7.77247 5.95699 7.79297C6.52097 7.87357 6.98324 8.14017 7.34371 8.59278C7.46566 8.97226 7.46566 9.35505 7.34371 9.74122C7.28011 9.94908 7.14339 10.0516 6.93355 10.0488C5.46218 10.0762 3.99086 10.0762 2.51949 10.0488C1.73753 9.93161 1.39248 9.45993 1.48433 8.63379C1.66309 8.14739 1.99513 7.86028 2.48043 7.77247Z" fill="#444444"/>
</g>
<defs>
<clipPath id="clip0_1_166">
<rect width="20" height="21" rx="5" fill="white"/>
</clipPath>
</defs>
</svg>
