<svg width="28" height="28" viewBox="0 0 28 28" fill="none" xmlns="http://www.w3.org/2000/svg">
<g clip-path="url(#clip0_1_2296)">
<path d="M27.9545 18.8662C27.9976 18.7507 28.0129 18.6235 27.9731 18.4952L25.6666 10.9993V4.0834C25.6666 2.47575 24.3588 1.16675 22.75 1.16675H5.25C3.64115 1.16675 2.33335 2.47575 2.33335 4.0834V10.9994L0.0268516 18.4952C-0.0127969 18.6223 0.00235156 18.7495 0.0455 18.8662C0.0175 18.9899 0 19.117 0 19.25V23.9167V26.25C0 26.572 0.261352 26.8334 0.583352 26.8334H2.9167C3.23865 26.8334 3.5 26.572 3.5 26.25V24.5H24.5V26.25C24.5 26.572 24.7614 26.8334 25.0834 26.8334H27.4167C27.7387 26.8334 28.0001 26.572 28.0001 26.25V23.9167V19.25C28 19.117 27.9825 18.9899 27.9545 18.8662ZM3.5 4.0834C3.5 3.11854 4.28515 2.3334 5.25 2.3334H22.75C23.7149 2.3334 24.5 3.11854 24.5 4.0834V10.5H22.9145L22.3709 8.3254C22.1749 7.5449 21.476 7.00004 20.6721 7.00004H16.9166C15.9518 7.00004 15.1666 7.78519 15.1666 8.75004V10.5H12.8333V8.75119C12.8333 7.78634 12.0481 7.00119 11.0833 7.00119H7.3278C6.52395 7.00119 5.82515 7.54719 5.62915 8.32654L5.0855 10.5H3.5V4.0834ZM21.7164 11.4427C21.6044 11.585 21.4364 11.6667 21.2555 11.6667H16.9166C16.5958 11.6667 16.3333 11.4053 16.3333 11.0833V8.75004C16.3333 8.42804 16.5958 8.16669 16.9166 8.16669H20.6733C20.9416 8.16669 21.1738 8.34755 21.2391 8.60769L21.8225 10.941C21.8669 11.1172 21.8284 11.2992 21.7164 11.4427ZM11.6679 8.75004V11.0775C11.6679 11.0799 11.6667 11.081 11.6667 11.0834C11.6667 11.0845 11.6667 11.0857 11.6667 11.0857C11.6656 11.4066 11.4042 11.6667 11.0846 11.6667H6.7457C6.5637 11.6667 6.39685 11.5851 6.28485 11.4427C6.17285 11.2992 6.13435 11.1161 6.1787 10.9411L6.76205 8.60775C6.82741 8.34875 7.05955 8.16675 7.32905 8.16675H11.0846C11.4054 8.16669 11.6679 8.42804 11.6679 8.75004ZM3.34715 11.6667H5.103C5.16485 11.8417 5.24535 12.0097 5.36315 12.1613C5.69915 12.5883 6.202 12.8333 6.7445 12.8333H11.0834C11.8429 12.8333 12.4845 12.3433 12.726 11.6667H15.274C15.5155 12.3445 16.1571 12.8333 16.9166 12.8333H21.2555C21.798 12.8333 22.2996 12.5883 22.6356 12.1613C22.7535 12.0108 22.834 11.8417 22.8958 11.6667H24.6528L26.4541 17.521C26.3865 17.5129 26.32 17.5 26.25 17.5H1.75C1.68 17.5 1.6135 17.5129 1.547 17.521L3.34715 11.6667ZM2.33335 25.6667H1.16665V24.5H2.3333V25.6667H2.33335ZM26.8334 25.6667H25.6667V24.5H26.8334V25.6667ZM26.8334 23.3334H1.16665V19.25C1.16665 18.928 1.42915 18.6667 1.75 18.6667H26.25C26.5709 18.6667 26.8334 18.928 26.8334 19.25V23.3334Z" fill="#2F3571"/>
</g>
<defs>
<clipPath id="clip0_1_2296">
<rect width="28" height="28" fill="white"/>
</clipPath>
</defs>
</svg>
