<svg width="36" height="36" viewBox="0 0 36 36" fill="none" xmlns="http://www.w3.org/2000/svg">
<path opacity="0.936" fill-rule="evenodd" clip-rule="evenodd" d="M17.6836 0.457129C17.9282 0.434927 18.1626 0.470083 18.3867 0.562598C20.7803 2.6047 23.1943 4.62032 25.6289 6.60947C25.9102 6.91416 25.9102 7.21887 25.6289 7.52354C25.4038 7.62781 25.1694 7.65129 24.9258 7.59385C24.6563 7.37117 24.3867 7.14856 24.1172 6.92588C24.0938 9.29309 24.0703 11.6602 24.0469 14.0274C24.0226 14.1925 23.9405 14.3214 23.8008 14.4142C22.3477 14.4611 20.8946 14.4611 19.4414 14.4142C19.3594 14.3321 19.2774 14.2501 19.1953 14.1681C19.1602 12.551 19.1484 10.9338 19.1602 9.3165C18.3633 9.3165 17.5664 9.3165 16.7696 9.3165C16.7813 10.9338 16.7696 12.551 16.7344 14.1681C16.6523 14.2501 16.5704 14.3321 16.4883 14.4142C15.0352 14.4611 13.5821 14.4611 12.1289 14.4142C11.9892 14.3214 11.9072 14.1925 11.8828 14.0274C11.8594 11.6602 11.8359 9.29309 11.8125 6.92588C11.543 7.14856 11.2734 7.37117 11.0039 7.59385C10.2043 7.68385 9.96999 7.3557 10.3008 6.60947C12.7751 4.56822 15.236 2.51745 17.6836 0.457129ZM17.8946 1.79307C19.5544 3.13589 21.2068 4.49527 22.8516 5.87119C22.8867 8.35547 22.8985 10.8398 22.8867 13.3243C22.0196 13.3243 21.1523 13.3243 20.2852 13.3243C20.2969 11.707 20.2852 10.0898 20.25 8.47275C20.1843 8.2898 20.0554 8.18433 19.8633 8.15635C18.5977 8.10945 17.3321 8.10945 16.0664 8.15635C15.9013 8.18068 15.7725 8.26273 15.6797 8.40244C15.6446 10.0429 15.6328 11.6835 15.6446 13.3243C14.7774 13.3243 13.9102 13.3243 13.043 13.3243C13.0313 10.8398 13.043 8.35547 13.0782 5.87119C14.7177 4.54773 16.3231 3.18835 17.8946 1.79307Z" fill="#595959"/>
<path opacity="0.931" fill-rule="evenodd" clip-rule="evenodd" d="M28.3008 14.8712C28.5649 14.841 28.811 14.8878 29.039 15.0118C30.8437 17.6837 32.6484 20.3555 34.4531 23.0274C34.6901 23.3956 34.6315 23.712 34.2773 23.9766C33.0117 24.7267 31.7461 25.4766 30.4804 26.2266C30.2834 26.2797 30.0958 26.2563 29.9179 26.1563C29.8135 25.9822 29.6846 25.8298 29.5312 25.6993C28.6835 26.1172 27.8515 26.5626 27.0351 27.0352C28.2051 27.8243 28.4746 28.8556 27.8437 30.129C27.3657 30.7492 26.7446 31.0305 25.9804 30.9727C25.6671 31.9261 25.0109 32.4418 24.0117 32.5196C23.7555 33.7241 23.0055 34.3217 21.7617 34.3126C21.1674 35.4172 20.2768 35.7453 19.0898 35.2969C18.3962 34.8261 17.6931 34.369 16.9804 33.9259C16.6416 34.2295 16.3135 34.5459 15.9961 34.8751C14.8815 35.3786 14.0377 35.0973 13.4648 34.0313C12.3171 34.1232 11.5672 33.631 11.2148 32.5548C9.9918 32.515 9.33558 31.894 9.24607 30.6915C8.01799 30.4573 7.46723 29.7073 7.59372 28.4415C7.30312 28.0805 6.98672 27.7406 6.6445 27.4219C6.58603 27.3736 6.53915 27.3853 6.50388 27.4571C6.37999 27.8272 6.1339 28.0617 5.7656 28.1602C4.2887 27.3571 2.84729 26.4899 1.44138 25.5587C1.28227 25.3292 1.27056 25.0948 1.40622 24.8555C3.31638 21.6797 5.22653 18.504 7.13669 15.3282C7.37104 15.1876 7.60547 15.1876 7.83982 15.3282C9.10544 16.1016 10.3711 16.8751 11.6367 17.6485C11.9549 17.9187 12.0018 18.2351 11.7773 18.5977C12.5821 18.7031 13.3907 18.7734 14.2031 18.8087C14.2852 18.7853 14.3671 18.7618 14.4492 18.7384C14.8875 18.0309 15.5203 17.6207 16.3476 17.5079C18.522 17.4755 20.6782 17.6629 22.8164 18.0704C23.3775 18.1478 23.94 18.1713 24.5039 18.1407C24.2254 17.8218 24.2254 17.5054 24.5039 17.1915C25.7974 16.4516 27.063 15.6781 28.3008 14.8712ZM28.3711 16.2071C29.9882 18.5288 31.582 20.8725 33.1523 23.2384C32.2851 23.8127 31.3944 24.3518 30.4804 24.8555C28.8753 22.5348 27.2815 20.2028 25.6992 17.8594C26.6061 17.3245 27.4967 16.7738 28.3711 16.2071ZM7.69919 16.629C8.63547 17.2131 9.57295 17.799 10.5117 18.3868C8.85935 21.1759 7.207 23.9649 5.55466 26.754C4.61137 26.1475 3.66215 25.5499 2.707 24.961C4.3984 22.1992 6.06246 19.4219 7.69919 16.629ZM16.2773 18.668C18.3345 18.6305 20.3736 18.8063 22.3945 19.1954C23.3792 19.2759 24.3635 19.3579 25.3476 19.4415C26.5195 21.1759 27.6914 22.9102 28.8633 24.6446C27.8977 25.2272 26.9015 25.7663 25.875 26.2618C22.8734 24.2104 19.85 22.1948 16.8047 20.2149C16.6517 20.268 16.4994 20.3266 16.3476 20.3907C15.5742 21.211 14.8008 22.0313 14.0273 22.8516C13.6099 23.1667 13.1412 23.3659 12.6211 23.4493C12.458 23.4096 12.2939 23.3745 12.1289 23.3438C13.3125 21.9258 14.4961 20.5079 15.6797 19.0899C15.8675 18.921 16.0667 18.7804 16.2773 18.668ZM11.0742 19.793C11.7294 19.8388 12.3856 19.874 13.0429 19.8985C13.1664 19.9127 13.2836 19.9479 13.3945 20.004C12.5024 21.0484 11.6235 22.1031 10.7578 23.168C10.5593 23.6273 10.6882 23.9671 11.1445 24.1876C12.4892 24.8228 13.7313 24.6587 14.8711 23.6954C15.5134 22.9826 16.1814 22.2912 16.875 21.6212C20.1037 23.7804 23.3264 25.9484 26.5429 28.1251C27.1028 28.5536 27.1731 29.0457 26.7539 29.6016C26.4302 29.8548 26.0786 29.9017 25.6992 29.7423C24.1054 28.5938 22.5117 27.4454 20.9179 26.2969C20.4208 26.1257 20.1161 26.2898 20.0039 26.7891C20.0407 26.9588 20.111 27.1112 20.2148 27.2462C21.6581 28.3028 23.1113 29.3458 24.5742 30.3751C24.8591 30.6927 24.8123 30.9739 24.4336 31.2188C24.2059 31.315 23.9715 31.3384 23.7304 31.2891C22.6163 30.486 21.5148 29.6656 20.4258 28.8282C19.6572 28.5891 19.3642 28.8586 19.5468 29.6368C20.5933 30.4724 21.6597 31.281 22.7461 32.0626C22.9104 32.2449 22.9221 32.4441 22.7812 32.6602C22.5345 33.0356 22.1947 33.1645 21.7617 33.0469C20.8746 32.4177 20.0074 31.7614 19.1601 31.0782C18.3861 30.8916 18.1165 31.1846 18.3515 31.9571C19.0888 32.56 19.8388 33.1459 20.6015 33.7149C20.5878 34.1038 20.3768 34.3148 19.9687 34.3477C19.2077 33.9624 18.4812 33.5171 17.789 33.0118C17.9729 32.2277 17.7737 31.5597 17.1914 31.0079C16.931 30.8424 16.6498 30.7369 16.3476 30.6915C16.2699 29.7134 15.7543 29.1274 14.8008 28.9337C14.7179 27.4623 13.9444 26.8178 12.4804 27.0001C12.3385 27.0317 12.2096 27.0903 12.0937 27.1759C11.4637 26.1186 10.5848 25.8491 9.457 26.3673C9.09272 26.7433 8.71767 27.1066 8.332 27.4571C7.959 27.0605 7.58395 26.6621 7.207 26.2618C8.49689 24.1036 9.78593 21.9473 11.0742 19.793ZM10.3008 27.2462C10.9266 27.3204 11.1258 27.6486 10.8984 28.2305C10.5117 28.6173 10.125 29.004 9.73825 29.3907C9.21893 29.6348 8.89078 29.4825 8.75388 28.9337C8.79283 28.7853 8.85147 28.6447 8.92966 28.5118C9.35829 28.0476 9.81532 27.6257 10.3008 27.2462ZM12.832 28.0899C13.5682 28.1795 13.7674 28.5545 13.4297 29.2149C12.7851 29.8595 12.1406 30.504 11.4961 31.1485C10.9208 31.4819 10.5459 31.3295 10.3711 30.6915C10.3991 30.5722 10.4343 30.455 10.4765 30.3399C11.2347 29.5462 12.0199 28.7962 12.832 28.0899ZM14.3086 30.0587C15.0919 30.102 15.3146 30.477 14.9765 31.1837C14.4726 31.6876 13.9687 32.1915 13.4648 32.6954C13.0516 32.9329 12.7118 32.8508 12.4453 32.4493C12.3984 32.2618 12.3984 32.0743 12.4453 31.8868C13.059 31.2613 13.6801 30.6519 14.3086 30.0587ZM15.9258 31.8868C16.5927 31.8602 16.7919 32.1415 16.5234 32.7305C16.0951 33.2179 15.6146 33.6398 15.082 33.9962C14.6497 33.9037 14.4974 33.6459 14.625 33.2227C15.0728 32.7867 15.5064 32.3414 15.9258 31.8868Z" fill="#595959"/>
</svg>
