<svg width="38" height="38" viewBox="0 0 38 38" fill="none" xmlns="http://www.w3.org/2000/svg">
<circle cx="19" cy="19" r="18" fill="#E76D40" stroke="white" stroke-width="2"/>
<path fill-rule="evenodd" clip-rule="evenodd" d="M19 17.7523C18.48 17.7523 17.992 17.9658 17.616 18.367C17.248 18.7597 17.048 19.2804 17.056 19.8182V19.8267C17.056 20.3816 17.256 20.9023 17.624 21.295C17.992 21.6877 18.48 21.9011 19 21.9011C20.072 21.9011 20.936 20.9706 20.944 19.8267C20.944 19.2718 20.744 18.7511 20.376 18.3584C20.008 17.9658 19.52 17.7523 19 17.7523ZM23.488 17.8121C23.088 17.8121 22.768 17.4706 22.768 17.0438C22.768 16.617 23.088 16.267 23.488 16.267C23.888 16.267 24.216 16.617 24.216 17.0438C24.216 17.4706 23.888 17.8121 23.488 17.8121ZM21.216 22.1999C20.648 22.8059 19.864 23.1815 19 23.1815C18.16 23.1815 17.376 22.8315 16.776 22.1999C16.184 21.5596 15.856 20.723 15.856 19.8267C15.848 18.9389 16.176 18.1023 16.768 17.4621C17.368 16.8219 18.16 16.4719 19 16.4719C19.84 16.4719 20.632 16.8219 21.224 17.4536C21.816 18.0938 22.144 18.9389 22.144 19.8267C22.136 20.7572 21.784 21.5938 21.216 22.1999ZM23.512 13.8683C23.44 13.8683 23.384 13.8256 23.352 13.7658L23.272 13.578C23.056 13.0914 22.808 12.528 22.656 12.2036C22.288 11.4354 21.656 11.0085 20.88 11H17.112C16.336 11.0085 15.712 11.4354 15.344 12.2036C15.184 12.5451 14.912 13.1597 14.688 13.6634L14.64 13.7658C14.616 13.8341 14.552 13.8683 14.488 13.8683C12.56 13.8683 11 15.5414 11 17.5902V22.6608C11 24.7096 12.56 26.3827 14.488 26.3827H23.512C25.432 26.3827 27 24.7096 27 22.6608V17.5902C27 15.5414 25.432 13.8683 23.512 13.8683Z" fill="white"/>
</svg>
