<svg width="16" height="16" viewBox="0 0 16 16" fill="none" xmlns="http://www.w3.org/2000/svg">
<path fill-rule="evenodd" clip-rule="evenodd" d="M8 6.75235C7.48 6.75235 6.992 6.96576 6.616 7.36698C6.248 7.75965 6.048 8.28038 6.056 8.81818V8.82671C6.056 9.38158 6.256 9.90231 6.624 10.295C6.992 10.6877 7.48 10.9011 8 10.9011C9.072 10.9011 9.936 9.9706 9.944 8.82671C9.944 8.27184 9.744 7.75112 9.376 7.35844C9.008 6.96576 8.52 6.75235 8 6.75235ZM12.488 6.81211C12.088 6.81211 11.768 6.47065 11.768 6.04382C11.768 5.617 12.088 5.267 12.488 5.267C12.888 5.267 13.216 5.617 13.216 6.04382C13.216 6.47065 12.888 6.81211 12.488 6.81211ZM10.216 11.1999C9.648 11.8059 8.864 12.1815 8 12.1815C7.16 12.1815 6.376 11.8315 5.776 11.1999C5.184 10.5596 4.856 9.72304 4.856 8.82671C4.848 7.93892 5.176 7.10235 5.768 6.46211C6.368 5.82188 7.16 5.47188 8 5.47188C8.84 5.47188 9.632 5.82188 10.224 6.45357C10.816 7.09381 11.144 7.93892 11.144 8.82671C11.136 9.75719 10.784 10.5938 10.216 11.1999ZM12.512 2.86825C12.44 2.86825 12.384 2.82557 12.352 2.76582L12.272 2.57801C12.056 2.09143 11.808 1.52803 11.656 1.20364C11.288 0.43536 10.656 0.00853647 9.88 0H6.112C5.336 0.00853647 4.712 0.43536 4.344 1.20364C4.184 1.5451 3.912 2.15973 3.688 2.66338L3.64 2.76582C3.616 2.83411 3.552 2.86825 3.488 2.86825C1.56 2.86825 0 4.5414 0 6.59015V11.6608C0 13.7096 1.56 15.3827 3.488 15.3827H12.512C14.432 15.3827 16 13.7096 16 11.6608V6.59015C16 4.5414 14.432 2.86825 12.512 2.86825Z" fill="white"/>
</svg>
