<svg width="10" height="10" viewBox="0 0 10 10" fill="none" xmlns="http://www.w3.org/2000/svg">
<g clip-path="url(#clip0_1_1641)">
<path d="M8.53427 1.46486C6.58126 -0.488142 3.42024 -0.488435 1.46696 1.46486C-0.103548 3.03535 -0.400319 5.37055 0.528169 7.23024L0.0134175 9.49446C-0.0534895 9.78875 0.210268 10.0526 0.504674 9.98572L2.7689 9.47097C6.06106 11.1147 9.99802 8.73499 9.99802 4.99854C9.99802 3.66373 9.47818 2.40877 8.53427 1.46486ZM6.04308 6.24298H2.91567C2.68897 6.24298 2.5052 6.0592 2.5052 5.8325C2.5052 5.60581 2.68897 5.42203 2.91567 5.42203H6.04308C6.26977 5.42203 6.45355 5.60581 6.45355 5.8325C6.45355 6.0592 6.26977 6.24298 6.04308 6.24298ZM7.08556 4.57503H2.91567C2.68897 4.57503 2.5052 4.39126 2.5052 4.16456C2.5052 3.93786 2.68897 3.75409 2.91567 3.75409H7.08556C7.31226 3.75409 7.49603 3.93786 7.49603 4.16456C7.49603 4.39126 7.31224 4.57503 7.08556 4.57503Z" fill="#00A664"/>
</g>
<defs>
<clipPath id="clip0_1_1641">
<rect width="10" height="10" fill="white"/>
</clipPath>
</defs>
</svg>
