<svg width="20" height="20" viewBox="0 0 20 20" fill="none" xmlns="http://www.w3.org/2000/svg">
<g clip-path="url(#clip0_1_2255)">
<path d="M17.0685 2.92973C13.1625 -0.976283 6.84042 -0.97687 2.93385 2.92973C-0.207156 6.0707 -0.800699 10.7411 1.05628 14.4605L0.0267739 18.9889C-0.10704 19.5775 0.420475 20.1053 1.00929 19.9714L5.53773 18.9419C12.1221 22.2293 19.996 17.47 19.996 9.99708C19.996 7.32745 18.9563 4.81755 17.0685 2.92973ZM12.0861 12.486H5.83128C5.37788 12.486 5.01034 12.1184 5.01034 11.665C5.01034 11.2116 5.37788 10.8441 5.83128 10.8441H12.0861C12.5395 10.8441 12.907 11.2116 12.907 11.665C12.907 12.1184 12.5395 12.486 12.0861 12.486ZM14.1711 9.15006H5.83128C5.37788 9.15006 5.01034 8.78252 5.01034 8.32912C5.01034 7.87572 5.37788 7.50818 5.83128 7.50818H14.1711C14.6245 7.50818 14.992 7.87572 14.992 8.32912C14.992 8.78252 14.6244 9.15006 14.1711 9.15006Z" fill="#444444"/>
</g>
<defs>
<clipPath id="clip0_1_2255">
<rect width="20" height="20" fill="white"/>
</clipPath>
</defs>
</svg>
