<svg width="15" height="15" viewBox="0 0 15 15" fill="none" xmlns="http://www.w3.org/2000/svg">
<g clip-path="url(#clip0_5_17)">
<path opacity="0.944" fill-rule="evenodd" clip-rule="evenodd" d="M9.03809 -0.0146484C9.08692 -0.0146484 9.13573 -0.0146484 9.18457 -0.0146484C10.5136 0.390976 11.8418 0.806013 13.1689 1.23047C13.0935 1.4392 13.0203 1.64916 12.9492 1.86035C11.6978 1.4709 10.4429 1.09004 9.18457 0.717773C8.66332 1.00285 8.14576 1.29582 7.63184 1.59668C7.48063 1.42095 7.36834 1.22563 7.29492 1.01074C7.87541 0.664479 8.45648 0.322682 9.03809 -0.0146484Z" fill="#5D5D5D"/>
<path opacity="0.944" fill-rule="evenodd" clip-rule="evenodd" d="M9.03809 1.12793C10.4253 1.51061 11.8023 1.92564 13.1689 2.37305C13.1033 2.56193 13.0399 2.75236 12.9785 2.94434C12.9695 2.96801 12.9548 2.98755 12.9346 3.00293C11.6874 2.61302 10.4375 2.23216 9.18457 1.86035C8.66769 2.1522 8.1501 2.44517 7.63184 2.73926C7.5322 2.6087 7.43941 2.47198 7.35352 2.3291C7.3154 2.27338 7.29586 2.21478 7.29492 2.15332C7.87541 1.80706 8.45648 1.46526 9.03809 1.12793Z" fill="#5D5D5D"/>
<path opacity="0.944" fill-rule="evenodd" clip-rule="evenodd" d="M2.85645 2.27051C4.24884 2.65019 5.62579 3.07011 6.9873 3.53027C6.91503 3.7227 6.85154 3.91802 6.79688 4.11621C6.78475 4.1296 6.7701 4.13938 6.75293 4.14551C5.50731 3.76696 4.2622 3.3861 3.01758 3.00293C2.51273 3.28711 2.0098 3.57519 1.50879 3.86719C1.47949 3.88673 1.4502 3.88673 1.4209 3.86719C1.28984 3.68783 1.1873 3.4974 1.11328 3.2959C1.70342 2.9644 2.28447 2.62261 2.85645 2.27051Z" fill="#5D5D5D"/>
<path opacity="0.944" fill-rule="evenodd" clip-rule="evenodd" d="M9.03809 2.27051C10.4211 2.66268 11.7981 3.07772 13.1689 3.51562C13.0988 3.71291 13.0354 3.9131 12.9785 4.11621C12.9664 4.1296 12.9517 4.13938 12.9346 4.14551C11.6846 3.76465 10.4346 3.38379 9.18457 3.00293C8.67064 3.30378 8.15309 3.59675 7.63184 3.88184C7.56466 3.82641 7.51096 3.75806 7.4707 3.67676C7.3943 3.55351 7.3357 3.42656 7.29492 3.2959C7.88505 2.9644 8.46612 2.62261 9.03809 2.27051Z" fill="#5D5D5D"/>
<path opacity="0.944" fill-rule="evenodd" clip-rule="evenodd" d="M2.88574 3.41309C4.26123 3.80977 5.62843 4.22968 6.9873 4.67285C6.92385 4.868 6.86039 5.06332 6.79688 5.25879C6.78044 5.27408 6.7609 5.28384 6.73828 5.28809C5.4939 4.90421 4.24878 4.52335 3.00293 4.14551C2.47807 4.44454 1.95561 4.74727 1.43555 5.05371C1.31739 4.86217 1.20508 4.66688 1.09863 4.46777C1.69136 4.10807 2.28706 3.7565 2.88574 3.41309Z" fill="#5D5D5D"/>
<path opacity="0.944" fill-rule="evenodd" clip-rule="evenodd" d="M9.03809 3.41309C10.4208 3.80725 11.7977 4.22227 13.1689 4.6582C13.0998 4.85581 13.0363 5.056 12.9785 5.25879C12.9621 5.27408 12.9425 5.28384 12.9199 5.28809C11.6753 4.90491 10.4302 4.52405 9.18457 4.14551C8.65972 4.44454 8.13727 4.74727 7.61719 5.05371C7.49748 4.86319 7.38519 4.66787 7.28027 4.46777C7.86806 4.11545 8.45399 3.76389 9.03809 3.41309Z" fill="#5D5D5D"/>
<path opacity="0.944" fill-rule="evenodd" clip-rule="evenodd" d="M2.88574 4.55566C4.26123 4.95234 5.62843 5.37226 6.9873 5.81543C6.91491 6.01714 6.85632 6.22222 6.81152 6.43066C5.5372 6.06812 4.26768 5.68726 3.00293 5.28809C2.47807 5.58712 1.95561 5.88984 1.43555 6.19629C1.31584 6.00577 1.20353 5.81045 1.09863 5.61035C1.69549 5.25694 2.29119 4.90538 2.88574 4.55566Z" fill="#5D5D5D"/>
<path opacity="0.944" fill-rule="evenodd" clip-rule="evenodd" d="M9.06738 4.55566C10.437 4.96157 11.8042 5.37662 13.1689 5.80078C13.0998 5.99839 13.0363 6.19857 12.9785 6.40137C12.9069 6.42437 12.8337 6.4195 12.7588 6.38672C11.5663 6.02341 10.3749 5.6572 9.18457 5.28809C8.65972 5.58712 8.13727 5.88984 7.61719 6.19629C7.49748 6.00577 7.38519 5.81045 7.28027 5.61035C7.87301 5.25064 8.4687 4.89908 9.06738 4.55566Z" fill="#5D5D5D"/>
<path opacity="0.944" fill-rule="evenodd" clip-rule="evenodd" d="M2.88574 5.69824C4.25672 6.10641 5.62389 6.52632 6.9873 6.95801C6.91661 7.16021 6.85802 7.36529 6.81152 7.57324C5.54906 7.2143 4.2893 6.84322 3.03223 6.45996C2.95816 6.46767 2.88981 6.49207 2.82715 6.5332C2.36816 6.80177 1.90918 7.0703 1.4502 7.33887C1.3187 7.15433 1.20151 6.959 1.09863 6.75293C1.70101 6.40799 2.29672 6.05643 2.88574 5.69824Z" fill="#5D5D5D"/>
<path opacity="0.944" fill-rule="evenodd" clip-rule="evenodd" d="M9.06742 5.69824C10.435 6.11013 11.8022 6.52518 13.169 6.94336C13.0999 7.14097 13.0364 7.34115 12.9786 7.54395C12.9379 7.57482 12.8939 7.57969 12.8467 7.55859C11.6196 7.18474 10.394 6.80874 9.16996 6.43066C8.65486 6.7297 8.14217 7.03245 7.63188 7.33887C7.51267 7.16912 7.40034 6.99334 7.29496 6.81152C7.27302 6.77827 7.27788 6.74897 7.30961 6.72363C7.89739 6.38106 8.48333 6.03926 9.06742 5.69824Z" fill="#5D5D5D"/>
<path opacity="0.944" fill-rule="evenodd" clip-rule="evenodd" d="M2.88574 6.84082C4.25672 7.24898 5.62389 7.6689 6.9873 8.10059C6.92241 8.31967 6.84917 8.5345 6.76758 8.74512C5.5224 8.35078 4.27239 7.96992 3.01758 7.60254C2.48979 7.88358 1.96733 8.17655 1.4502 8.48145C1.32241 8.29942 1.20522 8.10899 1.09863 7.91016C1.69619 7.55294 2.2919 7.19651 2.88574 6.84082Z" fill="#5D5D5D"/>
<path opacity="0.944" fill-rule="evenodd" clip-rule="evenodd" d="M9.06733 6.84082C10.434 7.25575 11.8012 7.6708 13.1689 8.08594C13.098 8.30587 13.0248 8.5256 12.9492 8.74512C11.704 8.35078 10.454 7.96992 9.19916 7.60254C8.67138 7.88358 8.14893 8.17655 7.63178 8.48145C7.52236 8.33127 7.41982 8.17503 7.32416 8.0127C7.2954 7.97581 7.28564 7.93676 7.29487 7.89551C7.88998 7.54688 8.48078 7.19531 9.06733 6.84082Z" fill="#5D5D5D"/>
<path opacity="0.944" fill-rule="evenodd" clip-rule="evenodd" d="M2.85645 8.0127C4.24181 8.39083 5.61876 8.80099 6.9873 9.24316C6.92241 9.46225 6.84917 9.67708 6.76758 9.8877C5.52006 9.50118 4.27008 9.12032 3.01758 8.74512C2.48979 9.02616 1.96733 9.31913 1.4502 9.62402C1.37219 9.52128 1.29895 9.41388 1.23047 9.30176C1.18102 9.21313 1.14196 9.12524 1.11328 9.03809C1.69378 8.69183 2.27483 8.35002 2.85645 8.0127Z" fill="#5D5D5D"/>
<path opacity="0.944" fill-rule="evenodd" clip-rule="evenodd" d="M9.03809 8.0127C10.4104 8.39687 11.7776 8.80213 13.1396 9.22852C13.1494 9.23827 13.1592 9.24806 13.1689 9.25781C13.0935 9.46655 13.0203 9.67649 12.9492 9.8877C11.6978 9.49825 10.4429 9.11739 9.18457 8.74512C8.66332 9.03021 8.14576 9.32317 7.63184 9.62402C7.48063 9.4483 7.36834 9.25298 7.29492 9.03809C7.87541 8.69183 8.45648 8.35002 9.03809 8.0127Z" fill="#5D5D5D"/>
<path opacity="0.944" fill-rule="evenodd" clip-rule="evenodd" d="M2.85645 9.15527C4.24368 9.53795 5.62064 9.953 6.9873 10.4004C6.91819 10.598 6.85471 10.7982 6.79688 11.001C6.78475 11.0144 6.7701 11.0242 6.75293 11.0303C5.51001 10.6426 4.26489 10.2618 3.01758 9.8877C2.49166 10.1743 1.9692 10.4673 1.4502 10.7666C1.4094 10.7342 1.37522 10.6951 1.34766 10.6494C1.25195 10.4971 1.17382 10.3408 1.11328 10.1807C1.70342 9.84917 2.28447 9.50736 2.85645 9.15527Z" fill="#5D5D5D"/>
<path opacity="0.944" fill-rule="evenodd" clip-rule="evenodd" d="M9.03809 9.15527C10.4253 9.53795 11.8023 9.953 13.1689 10.4004C13.1033 10.5893 13.0399 10.7797 12.9785 10.9717C12.9695 10.9954 12.9548 11.0149 12.9346 11.0303C11.6874 10.6404 10.4375 10.2595 9.18457 9.8877C8.66769 10.1796 8.1501 10.4725 7.63184 10.7666C7.5322 10.636 7.43941 10.4993 7.35352 10.3564C7.3154 10.3007 7.29586 10.2421 7.29492 10.1807C7.87541 9.8344 8.45648 9.4926 9.03809 9.15527Z" fill="#5D5D5D"/>
<path opacity="0.944" fill-rule="evenodd" clip-rule="evenodd" d="M2.85645 10.2979C4.24884 10.6775 5.62579 11.0975 6.9873 11.5576C6.91503 11.75 6.85154 11.9454 6.79688 12.1436C6.78475 12.1569 6.7701 12.1667 6.75293 12.1729C5.50731 11.7943 4.2622 11.4134 3.01758 11.0303C2.51273 11.3145 2.0098 11.6025 1.50879 11.8945C1.47949 11.9141 1.4502 11.9141 1.4209 11.8945C1.28984 11.7152 1.1873 11.5247 1.11328 11.3232C1.70342 10.9917 2.28447 10.6499 2.85645 10.2979Z" fill="#5D5D5D"/>
<path opacity="0.944" fill-rule="evenodd" clip-rule="evenodd" d="M9.03809 10.2979C10.4211 10.69 11.7981 11.1051 13.1689 11.543C13.0988 11.7403 13.0354 11.9404 12.9785 12.1436C12.9664 12.1569 12.9517 12.1667 12.9346 12.1729C11.6846 11.792 10.4346 11.4111 9.18457 11.0303C8.67064 11.3311 8.15309 11.6241 7.63184 11.9092C7.56466 11.8537 7.51096 11.7854 7.4707 11.7041C7.3943 11.5808 7.3357 11.4539 7.29492 11.3232C7.88505 10.9917 8.46612 10.6499 9.03809 10.2979Z" fill="#5D5D5D"/>
<path opacity="0.98" fill-rule="evenodd" clip-rule="evenodd" d="M14.6338 14.9854C9.86815 14.9854 5.10255 14.9854 0.336914 14.9854C0.336914 14.7705 0.336914 14.5557 0.336914 14.3408C0.649415 14.3408 0.961913 14.3408 1.27441 14.3408C1.27929 13.8231 1.27441 13.3056 1.25977 12.7881C1.21349 12.6857 1.15978 12.5881 1.09863 12.4951C1.6975 12.1248 2.30785 11.7733 2.92969 11.4404C4.28845 11.8462 5.64097 12.2661 6.9873 12.7002C6.92909 12.8646 6.87539 13.0307 6.82617 13.1982C6.81152 13.579 6.80663 13.9598 6.81152 14.3408C7.02636 14.3408 7.24122 14.3408 7.45605 14.3408C7.46095 13.8231 7.45605 13.3056 7.44141 12.7881C7.38026 12.6951 7.32653 12.5975 7.28027 12.4951C7.87726 12.1283 8.48271 11.7767 9.09668 11.4404C10.4571 11.8467 11.8145 12.2617 13.1689 12.6855C13.0998 12.8832 13.0363 13.0833 12.9785 13.2861C12.9639 13.6375 12.959 13.9891 12.9639 14.3408C13.5205 14.3408 14.0771 14.3408 14.6338 14.3408C14.6338 14.5557 14.6338 14.7705 14.6338 14.9854ZM3.85254 13.0518C4.50293 13.2217 5.15722 13.3779 5.81543 13.5205C5.81543 13.7939 5.81543 14.0674 5.81543 14.3408C5.16114 14.3408 4.50683 14.3408 3.85254 14.3408C3.85254 13.9111 3.85254 13.4815 3.85254 13.0518ZM10.0342 13.0518C10.6846 13.2217 11.3389 13.3779 11.9971 13.5205C11.9971 13.7939 11.9971 14.0674 11.9971 14.3408C11.3428 14.3408 10.6885 14.3408 10.0342 14.3408C10.0342 13.9111 10.0342 13.4815 10.0342 13.0518Z" fill="#5D5D5D"/>
</g>
<defs>
<clipPath id="clip0_5_17">
<rect width="15" height="15" fill="white"/>
</clipPath>
</defs>
</svg>
