<svg width="20" height="20" viewBox="0 0 20 20" fill="none" xmlns="http://www.w3.org/2000/svg">
<path d="M17.1082 8.39268C17.1323 5.57293 14.7307 2.98796 11.7547 2.63051C11.6955 2.62349 11.631 2.61281 11.5628 2.6015C11.4154 2.57709 11.2631 2.552 11.1093 2.552C10.4994 2.552 10.3364 2.98045 10.2934 3.23598C10.2517 3.48442 10.2915 3.69306 10.4116 3.85635C10.6136 4.13101 10.969 4.17977 11.2544 4.21883C11.3381 4.23039 11.4171 4.24113 11.4831 4.25598C14.1569 4.85343 15.0572 5.79275 15.4972 8.4438C15.508 8.50858 15.5128 8.5884 15.518 8.67305C15.5372 8.98995 15.5772 9.64927 16.286 9.64927H16.2861C16.3451 9.64927 16.4085 9.64417 16.4745 9.63411C17.1346 9.5338 17.1139 8.93113 17.1039 8.64156C17.1012 8.56001 17.0985 8.48287 17.1054 8.43156C17.1072 8.41864 17.1082 8.40566 17.1082 8.39268Z" fill="#444444"/>
<path d="M10.9365 1.59553C11.0157 1.60124 11.0907 1.60671 11.1531 1.61627C15.5437 2.29149 17.5629 4.37174 18.1225 8.79671C18.132 8.87192 18.1335 8.96366 18.135 9.06081C18.1406 9.40652 18.1521 10.1257 18.9245 10.1406L18.9484 10.1409C19.1907 10.1409 19.3833 10.0678 19.5212 9.9236C19.7616 9.67211 19.7448 9.29851 19.7313 8.99826C19.728 8.92459 19.7248 8.85522 19.7256 8.79447C19.7815 4.26888 15.8641 0.165093 11.3425 0.0124845C11.3238 0.0118634 11.3059 0.0128571 11.2878 0.0154037C11.2789 0.0167081 11.2625 0.018323 11.2343 0.018323C11.1892 0.018323 11.1337 0.0144099 11.0749 0.0104348C11.0038 0.00559006 10.9231 0 10.8414 0C10.1213 0 9.98444 0.511801 9.96693 0.816894C9.92655 1.52199 10.6087 1.57161 10.9365 1.59553Z" fill="#444444"/>
<path d="M17.9105 14.5157C17.8172 14.4444 17.7207 14.3706 17.6303 14.2978C17.1509 13.912 16.6409 13.5565 16.1477 13.2125C16.0453 13.1412 15.943 13.0699 15.841 12.9983C15.2092 12.5545 14.6412 12.3389 14.1045 12.3389C13.3817 12.3389 12.7515 12.7383 12.2314 13.5258C12.001 13.8749 11.7214 14.0447 11.3769 14.0447C11.1732 14.0447 10.9417 13.9865 10.6889 13.8718C8.64961 12.947 7.1934 11.5291 6.36067 9.65751C5.95812 8.75292 6.08862 8.16161 6.79706 7.68037C7.19936 7.40733 7.94818 6.899 7.89514 5.92559C7.83508 4.82018 5.39607 1.49416 4.36843 1.11639C3.93334 0.956394 3.47619 0.954903 3.00725 1.11267C1.82588 1.50981 0.978119 2.20726 0.555386 3.1295C0.146877 4.02062 0.165324 5.06695 0.60874 6.1554C1.8906 9.30236 3.69284 12.0461 5.96557 14.3102C8.19017 16.5266 10.9244 18.3422 14.0922 19.7062C14.3777 19.8291 14.6772 19.8961 14.8959 19.945C14.9705 19.9617 15.0348 19.976 15.0817 19.9889C15.1075 19.9959 15.1341 19.9997 15.1607 19.9999L15.1858 20.0001C15.1858 20.0001 15.1858 20.0001 15.1859 20.0001C16.6758 20.0001 18.4648 18.6386 19.0143 17.0864C19.4956 15.7273 18.6168 15.0555 17.9105 14.5157Z" fill="#444444"/>
<path d="M11.5954 5.19024C11.3404 5.1967 10.8095 5.20987 10.6232 5.75055C10.5361 6.00322 10.5465 6.2226 10.6543 6.4026C10.8124 6.6667 11.1154 6.74763 11.391 6.79204C12.3904 6.95241 12.9037 7.50509 13.0064 8.53117C13.0541 9.00962 13.3763 9.34372 13.7899 9.34372H13.79C13.8205 9.34372 13.8518 9.34192 13.8829 9.33813C14.3804 9.27894 14.6216 8.91341 14.5998 8.25179C14.6077 7.5613 14.2464 6.77738 13.6318 6.15297C13.0151 5.52664 12.2717 5.17391 11.5954 5.19024Z" fill="#444444"/>
</svg>
