<svg width="23" height="20" viewBox="0 0 23 20" fill="none" xmlns="http://www.w3.org/2000/svg">
<g clip-path="url(#clip0_1_3002)">
<path d="M6.93825 0C7.3494 0 7.6827 0.313244 7.6827 0.699649L7.68242 2.009H15.6767L15.6768 0.708141C15.6768 0.321736 16.0101 0.0084919 16.4213 0.0084919C16.8324 0.0084919 17.1657 0.321736 17.1657 0.708141L17.1656 2.009L20.0476 2.00902C21.2223 2.00902 22.1746 2.904 22.1746 4.00802V18.001C22.1746 19.105 21.2223 20 20.0476 20H3.03177C1.85707 20 0.904785 19.105 0.904785 18.001V4.00802C0.904785 2.904 1.85707 2.00902 3.03177 2.00902L6.19353 2.009L6.19381 0.699649C6.19381 0.313244 6.52711 0 6.93825 0ZM2.39367 7.742V18.001C2.39367 18.3322 2.67936 18.6007 3.03177 18.6007H20.0476C20.4001 18.6007 20.6857 18.3322 20.6857 18.001V7.756L2.39367 7.742ZM7.99473 14.6186V16.2848H6.22225V14.6186H7.99473ZM12.4259 14.6186V16.2848H10.6535V14.6186H12.4259ZM16.8572 14.6186V16.2848H15.0847V14.6186H16.8572ZM7.99473 10.6418V12.3079H6.22225V10.6418H7.99473ZM12.4259 10.6418V12.3079H10.6535V10.6418H12.4259ZM16.8572 10.6418V12.3079H15.0847V10.6418H16.8572ZM6.19353 3.408L3.03177 3.40832C2.67936 3.40832 2.39367 3.67681 2.39367 4.00802V6.343L20.6857 6.357V4.00802C20.6857 3.67681 20.4001 3.40832 20.0476 3.40832L17.1656 3.408L17.1657 4.33697C17.1657 4.72338 16.8324 5.03662 16.4213 5.03662C16.0101 5.03662 15.6768 4.72338 15.6768 4.33697L15.6767 3.408H7.68242L7.6827 4.32848C7.6827 4.71489 7.3494 5.02813 6.93825 5.02813C6.52711 5.02813 6.19381 4.71489 6.19381 4.32848L6.19353 3.408Z" fill="#C0C0C0"/>
</g>
<defs>
<clipPath id="clip0_1_3002">
<rect x="0.904785" width="21.2698" height="20" rx="5" fill="white"/>
</clipPath>
</defs>
</svg>
