<svg width="19" height="18" viewBox="0 0 19 18" fill="none" xmlns="http://www.w3.org/2000/svg">
<path d="M11.8518 3.42931L11.8518 3.42927C11.8361 3.40437 11.8169 3.39413 11.801 3.39071C11.7854 3.38736 11.7688 3.38939 11.7509 3.4016C11.5787 3.51943 11.416 3.65877 11.2679 3.81587C11.2679 3.81588 11.2679 3.81589 11.2679 3.8159L11.8518 3.42931ZM11.8518 3.42931C11.8682 3.45517 11.8742 3.48738 11.8677 3.52001C11.8613 3.55257 11.8446 3.5752 11.8256 3.58818L11.8256 3.5882M11.8518 3.42931L11.8256 3.5882M11.8256 3.5882C11.6618 3.70029 11.5091 3.8315 11.371 3.97802L11.7349 4.32092L11.8256 3.5882ZM14.181 3.168L14.181 3.16802C14.1694 3.1997 14.1712 3.23302 14.1835 3.26158C14.1958 3.28993 14.2145 3.30558 14.2324 3.31264L14.0486 3.77765L14.2324 3.31265C14.6005 3.4581 14.9278 3.68397 15.2049 3.97801L15.2049 3.97804C16.2865 5.12565 16.2865 6.98027 15.2049 8.12788L14.856 7.79906L15.2049 8.12788L13.1635 10.294C13.1635 10.294 13.1635 10.294 13.1635 10.2941C13.1449 10.3138 13.1328 10.3424 13.1332 10.3764L14.181 3.168ZM14.181 3.168C14.1923 3.13707 14.2114 3.12023 14.2285 3.11223C14.2451 3.10446 14.2612 3.10388 14.278 3.1105C14.6621 3.26231 15.0084 3.49801 15.308 3.81591L15.6075 3.53366L15.308 3.81592C16.4672 5.04593 16.4672 7.05999 15.308 8.29L13.2665 10.4562L13.2665 10.4562C13.2568 10.4665 13.2477 10.4722 13.2399 10.4755C13.2318 10.479 13.2233 10.4806 13.215 10.4806C13.2068 10.4806 13.1987 10.479 13.1908 10.4758C13.1833 10.4726 13.1743 10.4672 13.1647 10.4575L14.181 3.168ZM16.9696 9.98592L16.9695 9.98605L14.0621 13.0712L12.0919 15.1617L11.4439 15.8493L11.2625 16.0418L11.2147 16.0925L11.2025 16.1055L11.1994 16.1088L11.1986 16.1096L11.1984 16.1098L11.5622 16.4528L11.1983 16.1099C10.7395 16.5967 10.1374 16.8581 9.5 16.8581C8.86258 16.8581 8.26048 16.5967 7.80168 16.1099L2.03037 9.98593L1.66649 10.3288L2.03037 9.98592C-0.0101219 7.8208 -0.0101219 4.28512 2.03037 2.11999L2.03037 2.11999C3.01907 1.07088 4.32553 0.5 5.71202 0.5C6.99157 0.5 8.20201 0.986161 9.15761 1.88413L9.5 2.20588L9.84239 1.88414C10.798 0.986155 12.0084 0.5 13.2879 0.5C14.6744 0.5 15.9809 1.07089 16.9696 2.11995L17.33 1.78028L16.9696 2.11995C19.0101 4.28512 19.0101 7.8208 16.9696 9.98592ZM9.70938 2.28207L9.70933 2.28213C9.68985 2.30281 9.67288 2.32245 9.65984 2.33781L9.64162 2.35949L9.62695 2.37698C9.60863 2.39865 9.60141 2.40595 9.59772 2.40934L9.5977 2.40935C9.52694 2.4744 9.48666 2.47391 9.48499 2.47389H9.48497C9.48231 2.47386 9.47865 2.47352 9.47203 2.4704C9.46486 2.46703 9.44993 2.45827 9.43011 2.43695C9.40991 2.41521 9.39074 2.39351 9.3676 2.36727L9.36639 2.3659C9.34496 2.34162 9.31847 2.31159 9.29072 2.28214L9.29065 2.28206C8.34028 1.27369 7.06847 0.711032 5.71202 0.711032C4.35562 0.711032 3.0838 1.27365 2.13343 2.28207L2.13342 2.28207C0.170576 4.36484 0.170576 7.74104 2.13342 9.82381L2.13346 9.82385L5.03896 12.9069L7.01042 14.9988L7.65892 15.6869L7.8405 15.8796L7.88833 15.9303L7.90059 15.9434L7.90369 15.9466L7.90447 15.9475L7.90467 15.9477L8.26861 15.6048L7.90473 15.9478L7.90475 15.9478C8.3251 16.3938 8.89246 16.6471 9.5 16.6471C10.1075 16.6471 10.6749 16.3938 11.0953 15.9478L11.0953 15.9478L16.8666 9.82385L16.5027 9.48093L16.8666 9.82385C18.8294 7.74108 18.8294 4.36488 16.8666 2.28211L16.5027 2.62503L16.8666 2.28211C15.9162 1.2737 14.6444 0.711032 13.288 0.711032C11.9316 0.711032 10.6597 1.27364 9.70938 2.28207Z" fill="#1E66A5" stroke="#E76D40"/>
</svg>
