<svg width="17" height="17" viewBox="0 0 17 17" fill="none" xmlns="http://www.w3.org/2000/svg">
<g clip-path="url(#clip0_1_43)">
<path opacity="0.967" fill-rule="evenodd" clip-rule="evenodd" d="M16.9834 3.70209C16.9834 3.83491 16.9834 3.96772 16.9834 4.10053C16.9053 4.25111 16.7836 4.35626 16.6182 4.41596C15.5668 4.43256 14.5153 4.43811 13.4639 4.43256C13.14 5.49699 12.4206 6.06144 11.3057 6.12592C10.2186 6.0455 9.49915 5.49214 9.14746 4.46577C6.2146 4.43811 3.28164 4.42151 0.348633 4.41596C0.183212 4.35626 0.0614666 4.25111 -0.0166016 4.10053C-0.0166016 3.96772 -0.0166016 3.83491 -0.0166016 3.70209C0.0678569 3.53485 0.200669 3.41864 0.381836 3.35346C3.30371 3.3424 6.22559 3.33131 9.14746 3.32026C9.57266 2.11663 10.4249 1.57431 11.7041 1.6933C12.618 1.89339 13.2046 2.44124 13.4639 3.33686C14.5043 3.33131 15.5446 3.33686 16.585 3.35346C16.7653 3.41774 16.8981 3.53395 16.9834 3.70209ZM11.3057 2.7392C12.1136 2.8554 12.4844 3.32025 12.418 4.13373C12.1565 4.85384 11.6529 5.12498 10.9072 4.94721C10.2881 4.63291 10.0722 4.14041 10.2598 3.46967C10.4706 3.02429 10.8192 2.7808 11.3057 2.7392Z" fill="white"/>
<path opacity="0.982" fill-rule="evenodd" clip-rule="evenodd" d="M16.9834 8.28418C16.9834 8.41699 16.9834 8.5498 16.9834 8.68262C16.9121 8.82576 16.8014 8.93091 16.6514 8.99805C13.7073 9.00359 10.7633 9.02019 7.81934 9.04785C7.37461 10.3052 6.48922 10.842 5.16309 10.6582C4.28294 10.4365 3.72954 9.88869 3.50293 9.01465C2.44037 9.02019 1.37787 9.01465 0.31543 8.99805C0.165353 8.93091 0.0546756 8.82576 -0.0166016 8.68262C-0.0166016 8.5498 -0.0166016 8.41699 -0.0166016 8.28418C0.0546756 8.14104 0.165353 8.03589 0.31543 7.96875C1.37787 7.95215 2.44037 7.9466 3.50293 7.95215C3.72954 7.07811 4.28294 6.53026 5.16309 6.30859C6.48922 6.12481 7.37461 6.66158 7.81934 7.91894C10.7633 7.9466 13.7073 7.9632 16.6514 7.96875C16.8014 8.03589 16.9121 8.14104 16.9834 8.28418ZM5.46191 7.35449C6.16516 7.31574 6.60234 7.63672 6.77344 8.31738C6.81574 8.99084 6.51137 9.41697 5.86035 9.5957C4.94149 9.61762 4.50434 9.16937 4.54883 8.25098C4.67444 7.76565 4.97878 7.46682 5.46191 7.35449Z" fill="white"/>
<path opacity="0.967" fill-rule="evenodd" clip-rule="evenodd" d="M16.9834 12.8662C16.9834 12.999 16.9834 13.1318 16.9834 13.2646C16.8989 13.4319 16.7661 13.5481 16.585 13.6133C15.5446 13.6299 14.5043 13.6354 13.4639 13.6299C13.2046 14.5255 12.618 15.0734 11.7041 15.2734C10.4249 15.3924 9.57266 14.8501 9.14746 13.6465C6.22559 13.6354 3.30371 13.6243 0.381836 13.6133C0.200669 13.5481 0.0678569 13.4319 -0.0166016 13.2646C-0.0166016 13.1318 -0.0166016 12.999 -0.0166016 12.8662C0.0569483 12.7099 0.178693 12.6048 0.348633 12.5508C3.28164 12.5452 6.2146 12.5286 9.14746 12.501C9.49941 11.4743 10.2188 10.9209 11.3057 10.8408C12.4206 10.9053 13.14 11.4698 13.4639 12.5342C14.5153 12.5286 15.5668 12.5342 16.6182 12.5508C16.7836 12.6105 16.9053 12.7156 16.9834 12.8662ZM11.1729 11.9365C11.9199 11.9533 12.3404 12.3295 12.4346 13.0654C12.376 13.7494 12.0052 14.1367 11.3223 14.2275C10.6234 14.154 10.2415 13.7666 10.1768 13.0654C10.241 12.448 10.5731 12.0717 11.1729 11.9365Z" fill="white"/>
</g>
<defs>
<clipPath id="clip0_1_43">
<rect width="17" height="17" fill="white"/>
</clipPath>
</defs>
</svg>
