<svg width="15" height="15" viewBox="0 0 15 15" fill="none" xmlns="http://www.w3.org/2000/svg">
<g clip-path="url(#clip0_6_56)">
<path opacity="0.971" fill-rule="evenodd" clip-rule="evenodd" d="M7.10451 -0.0146484C7.35843 -0.0146484 7.61232 -0.0146484 7.86623 -0.0146484C8.14713 0.0448254 8.42059 0.137599 8.68655 0.263672C10.4103 1.2379 12.1388 2.20469 13.8721 3.16406C14.4338 3.58939 14.6291 4.14604 14.458 4.83398C14.3677 5.11225 14.2115 5.34662 13.9893 5.53711C13.7598 5.66648 13.5352 5.80318 13.3155 5.94727C13.6162 6.0951 13.8946 6.27577 14.1504 6.48926C14.5451 6.98812 14.6232 7.53498 14.3848 8.12988C14.2648 8.33772 14.1134 8.51839 13.9307 8.67188C13.7304 8.79647 13.5253 8.91366 13.3155 9.02344C13.5352 9.16752 13.7598 9.30422 13.9893 9.43359C14.5027 9.91031 14.6443 10.4816 14.4141 11.1475C14.319 11.3892 14.1676 11.5894 13.96 11.748C13.076 12.2535 12.1874 12.7516 11.294 13.2422C10.8004 13.3716 10.5172 13.1861 10.4444 12.6855C10.4405 12.5214 10.4942 12.3797 10.6055 12.2607C11.4724 11.7565 12.3464 11.2633 13.2276 10.7812C13.3436 10.6484 13.3436 10.5165 13.2276 10.3857C12.8612 10.1684 12.4901 9.95842 12.1143 9.75586C12.0517 9.73726 11.9931 9.74704 11.9385 9.78516C10.7838 10.4414 9.62173 11.086 8.45217 11.7188C7.80764 11.9727 7.16311 11.9727 6.51858 11.7188C5.31632 11.0591 4.11515 10.3999 2.91506 9.74121C2.54038 9.93346 2.16928 10.1336 1.80178 10.3418C1.63178 10.4674 1.61225 10.6138 1.74319 10.7812C3.501 11.7578 5.25881 12.7344 7.01662 13.7109C7.29905 13.816 7.58226 13.8258 7.86623 13.7402C8.02921 13.6636 8.19521 13.5952 8.36428 13.5352C8.89162 13.5255 9.12111 13.7843 9.05276 14.3115C8.95886 14.5323 8.79773 14.6837 8.56936 14.7656C8.33788 14.8608 8.10351 14.934 7.86623 14.9854C7.61232 14.9854 7.35843 14.9854 7.10451 14.9854C6.82362 14.9259 6.55016 14.8331 6.2842 14.707C4.56043 13.7328 2.8319 12.766 1.09865 11.8066C0.536922 11.3813 0.341608 10.8247 0.512717 10.1367C0.603027 9.85846 0.759276 9.62408 0.981467 9.43359C1.21096 9.30422 1.43557 9.16752 1.6553 9.02344C1.3545 8.87561 1.07618 8.69493 0.820334 8.48145C0.425661 7.98258 0.347535 7.43572 0.585959 6.84082C0.705994 6.63299 0.857362 6.45231 1.04006 6.29883C1.24037 6.17423 1.44545 6.05704 1.6553 5.94727C1.43557 5.80318 1.21096 5.66648 0.981467 5.53711C0.398506 4.96644 0.295967 4.31701 0.67385 3.58887C0.827837 3.37623 1.01827 3.20534 1.24514 3.07617C2.92483 2.13867 4.60452 1.20117 6.2842 0.263672C6.55016 0.137599 6.82362 0.0448254 7.10451 -0.0146484ZM7.42678 1.15723C7.74459 1.17038 8.03756 1.26316 8.30569 1.43555C9.96808 2.35703 11.6234 3.28966 13.2715 4.2334C13.3142 4.31736 13.3239 4.40525 13.3008 4.49707C13.2079 4.60474 13.0956 4.68773 12.9639 4.74609C11.3674 5.62734 9.77557 6.51601 8.1885 7.41211C7.71975 7.66603 7.251 7.66603 6.78225 7.41211C5.19518 6.51601 3.60339 5.62734 2.00686 4.74609C1.87517 4.68773 1.76286 4.60474 1.66994 4.49707C1.63777 4.37974 1.66219 4.2772 1.74319 4.18945C3.501 3.2129 5.25881 2.23633 7.01662 1.25977C7.15502 1.21599 7.29175 1.18181 7.42678 1.15723ZM2.88576 6.63574C3.9776 7.22074 5.06158 7.82133 6.13772 8.4375C6.89173 8.8563 7.67299 8.91489 8.48147 8.61328C9.6776 7.96154 10.869 7.30236 12.0557 6.63574C12.4729 6.85163 12.8782 7.08601 13.2715 7.33887C13.3301 7.43651 13.3301 7.53419 13.2715 7.63184C13.2061 7.69629 13.1328 7.74999 13.0518 7.79297C11.4552 8.67422 9.86346 9.56288 8.27639 10.459C7.74904 10.791 7.2217 10.791 6.69436 10.459C5.05373 9.54103 3.41311 8.62304 1.77248 7.70508C1.61623 7.55859 1.61623 7.41211 1.77248 7.26562C2.15016 7.06228 2.52125 6.8523 2.88576 6.63574Z" fill="black"/>
</g>
<defs>
<clipPath id="clip0_6_56">
<rect width="15" height="15" fill="white"/>
</clipPath>
</defs>
</svg>
