<svg width="15" height="15" viewBox="0 0 15 15" fill="none" xmlns="http://www.w3.org/2000/svg">
<g clip-path="url(#clip0_5_12)">
<path opacity="0.951" fill-rule="evenodd" clip-rule="evenodd" d="M7.28025 0.600586C8.85276 0.66479 9.83421 1.45581 10.2246 2.97363C10.3151 3.44751 10.2662 3.9065 10.0781 4.35059C9.74769 5.06561 9.33265 5.72479 8.83299 6.32812C9.99511 6.33788 11.1572 6.34767 12.3193 6.35742C12.6202 6.42378 12.8204 6.60442 12.9199 6.89941C13.5449 8.3838 14.1699 9.86815 14.7949 11.3525C14.882 11.7268 14.76 12.0051 14.4287 12.1875C14.3525 12.2145 14.2744 12.234 14.1943 12.2461C11.8896 12.2558 9.58495 12.2656 7.28025 12.2754C7.78234 12.8068 8.29504 13.3293 8.81834 13.8428C8.91188 14.1887 8.78005 14.3498 8.42283 14.3262C7.57234 14.0167 6.71787 13.7188 5.85935 13.4326C4.96099 13.7451 4.06255 14.0576 3.16404 14.3701C2.88166 14.3124 2.784 14.1464 2.87107 13.8721C3.35887 13.3403 3.85202 12.813 4.35056 12.29C3.10067 12.2656 1.85068 12.251 0.600565 12.2461C0.230785 12.1466 0.0891834 11.9074 0.17576 11.5283C0.771462 9.91699 1.36717 8.30566 1.96287 6.69434C2.08686 6.51193 2.25776 6.39964 2.47556 6.35742C3.6279 6.34767 4.78026 6.33788 5.9326 6.32812C5.41559 5.7 4.99079 5.01152 4.65818 4.2627C4.30504 2.87103 4.72984 1.78216 5.9326 0.996094C6.35632 0.763371 6.80553 0.631535 7.28025 0.600586ZM7.10447 1.59668C8.06175 1.53435 8.72093 1.9445 9.08201 2.82715C9.30437 3.89127 8.91862 4.63834 7.92478 5.06836C6.93537 5.28891 6.20784 4.95199 5.74217 4.05762C5.41876 3.01562 5.73613 2.23925 6.69431 1.72852C6.83359 1.68042 6.97032 1.63647 7.10447 1.59668ZM2.56346 6.72363C3.07164 6.71388 3.57944 6.72363 4.08689 6.75293C3.91961 7.24017 3.74383 7.72356 3.55955 8.20312C3.46545 8.23474 3.3678 8.24938 3.26658 8.24707C2.7835 8.22935 2.30498 8.19516 1.83103 8.14453C1.98802 7.74202 2.13938 7.33673 2.28514 6.92871C2.35923 6.82954 2.452 6.76119 2.56346 6.72363ZM4.49705 6.72363C5.08307 6.71874 5.66901 6.72363 6.25486 6.73828C6.50444 6.99855 6.74368 7.26712 6.97264 7.54395C7.07617 7.65729 7.18847 7.75983 7.30955 7.85156C9.17485 7.85645 11.0401 7.8711 12.9053 7.89551C13.1086 8.3511 13.304 8.8101 13.4912 9.27246C12.0557 9.29687 10.6202 9.31151 9.18455 9.31641C9.04659 9.37257 8.97824 9.47511 8.97947 9.62402C8.97883 9.69624 8.99348 9.76459 9.02342 9.8291C9.66306 10.5078 10.3027 11.1865 10.9424 11.8652C10.4736 11.8848 10.0049 11.8848 9.53611 11.8652C8.22751 10.6152 6.91893 9.36524 5.61033 8.11523C5.33834 7.97435 5.11861 8.02805 4.95115 8.27637C4.52473 9.47095 4.09017 10.6624 3.64744 11.8506C3.24742 11.8847 2.84701 11.8896 2.44627 11.8652C2.6893 11.3352 2.92856 10.803 3.16404 10.2686C3.29195 9.94392 3.19917 9.71443 2.88572 9.58008C2.38818 9.54258 1.89014 9.51328 1.39158 9.49219C1.37629 9.47575 1.36653 9.45621 1.36228 9.43359C1.47059 9.15753 1.57312 8.87921 1.6699 8.59863C1.68127 8.57145 1.7008 8.5519 1.72849 8.54004C2.35689 8.59623 2.98677 8.62066 3.61814 8.61328C3.79882 8.5498 3.92087 8.42774 3.98435 8.24707C4.16386 7.74173 4.33474 7.2339 4.49705 6.72363ZM8.51072 6.72363C9.74122 6.71874 10.9717 6.72363 12.2021 6.73828C12.3191 6.75035 12.4118 6.80408 12.4804 6.89941C12.5634 7.08495 12.6465 7.27052 12.7295 7.45605C11.1084 7.49511 9.48727 7.49511 7.86619 7.45605C8.0817 7.21134 8.29653 6.96721 8.51072 6.72363ZM5.31736 8.42285C5.46698 8.53805 5.61347 8.66013 5.75681 8.78906C6.82217 9.82515 7.89637 10.8505 8.97947 11.8652C8.27635 11.8848 7.57322 11.8848 6.8701 11.8652C6.59667 11.5918 6.32321 11.3183 6.04978 11.0449C5.874 10.9473 5.69822 10.9473 5.52244 11.0449C5.26852 11.3183 5.01464 11.5918 4.76072 11.8652C4.52635 11.8848 4.29197 11.8848 4.0576 11.8652C4.4805 10.7186 4.90044 9.57108 5.31736 8.42285ZM9.44822 9.71191C10.8496 9.67778 12.2558 9.67289 13.667 9.69727C13.9351 10.3013 14.189 10.9117 14.4287 11.5283C14.4028 11.7348 14.2856 11.8471 14.0771 11.8652C13.208 11.8848 12.3389 11.8848 11.4697 11.8652C10.8056 11.1369 10.1317 10.4191 9.44822 9.71191ZM1.2158 9.8584C1.74972 9.89019 2.28194 9.92927 2.81248 9.97559C2.83201 10.0146 2.83201 10.0537 2.81248 10.0928C2.54769 10.6858 2.27914 11.2766 2.00681 11.8652C1.66502 11.8848 1.32322 11.8848 0.981424 11.8652C0.697039 11.8249 0.584736 11.6638 0.64451 11.3818C0.832306 10.872 1.02274 10.3642 1.2158 9.8584Z" fill="#555555"/>
<path opacity="0.975" fill-rule="evenodd" clip-rule="evenodd" d="M7.16305 1.91898C8.04166 1.87539 8.59344 2.27578 8.81832 3.12015C8.90138 3.76926 8.67189 4.27219 8.12984 4.62894C7.36886 4.98071 6.71943 4.83912 6.1816 4.20414C5.75762 3.42396 5.87967 2.74524 6.54781 2.16801C6.74372 2.05249 6.9488 1.96948 7.16305 1.91898Z" fill="#5D5D5D"/>
</g>
<defs>
<clipPath id="clip0_5_12">
<rect width="15" height="15" fill="white"/>
</clipPath>
</defs>
</svg>
