<svg width="22" height="22" viewBox="0 0 22 22" fill="none" xmlns="http://www.w3.org/2000/svg">
<path d="M10.9892 0.166687C5.00925 0.166687 0.166748 5.02002 0.166748 11C0.166748 16.98 5.00925 21.8334 10.9892 21.8334C16.9801 21.8334 21.8334 16.98 21.8334 11C21.8334 5.02002 16.9801 0.166687 10.9892 0.166687ZM18.4967 6.66669H15.3009C14.9619 5.32493 14.4598 4.02974 13.8059 2.81002C15.782 3.49036 17.4472 4.85939 18.4967 6.66669ZM11.0001 2.37669C11.8992 3.67669 12.6034 5.11752 13.0692 6.66669H8.93091C9.39675 5.11752 10.1009 3.67669 11.0001 2.37669ZM2.61508 13.1667C2.44175 12.4734 2.33341 11.7475 2.33341 11C2.33341 10.2525 2.44175 9.52669 2.61508 8.83335H6.27675C6.19008 9.54835 6.12508 10.2634 6.12508 11C6.12508 11.7367 6.19008 12.4517 6.27675 13.1667H2.61508ZM3.50341 15.3334H6.69925C7.04591 16.6875 7.54425 17.9875 8.19425 19.19C6.21605 18.5134 4.54973 17.1434 3.50341 15.3334ZM6.69925 6.66669H3.50341C4.54973 4.85663 6.21605 3.48664 8.19425 2.81002C7.54038 4.02974 7.03831 5.32493 6.69925 6.66669ZM11.0001 19.6234C10.1009 18.3234 9.39675 16.8825 8.93091 15.3334H13.0692C12.6034 16.8825 11.8992 18.3234 11.0001 19.6234ZM13.5351 13.1667H8.46508C8.36758 12.4517 8.29175 11.7367 8.29175 11C8.29175 10.2634 8.36758 9.53752 8.46508 8.83335H13.5351C13.6326 9.53752 13.7084 10.2634 13.7084 11C13.7084 11.7367 13.6326 12.4517 13.5351 13.1667ZM13.8059 19.19C14.4559 17.9875 14.9542 16.6875 15.3009 15.3334H18.4967C17.4472 17.1407 15.782 18.5097 13.8059 19.19ZM15.7234 13.1667C15.8101 12.4517 15.8751 11.7367 15.8751 11C15.8751 10.2634 15.8101 9.54835 15.7234 8.83335H19.3851C19.5584 9.52669 19.6667 10.2525 19.6667 11C19.6667 11.7475 19.5584 12.4734 19.3851 13.1667H15.7234Z" fill="#212121"/>
</svg>
