<svg width="18" height="16" viewBox="0 0 18 16" fill="none" xmlns="http://www.w3.org/2000/svg">
<g opacity="0.5">
<path d="M11.25 9.66663H6.75C4.062 9.66663 1.875 11.6106 1.875 14V14.6666C1.875 14.8116 1.98038 14.94 2.13563 14.9843C2.23388 15.012 4.58588 15.6666 9 15.6666C13.4141 15.6666 15.7661 15.012 15.8644 14.9843C16.0196 14.94 16.125 14.8116 16.125 14.6666V14C16.125 11.6106 13.938 9.66663 11.25 9.66663Z" fill="#212121"/>
<path d="M9 8.33331C11.3231 8.33331 13.125 6.00398 13.125 3.99998C13.125 1.97831 11.2744 0.333313 9 0.333313C6.72563 0.333313 4.875 1.97831 4.875 3.99998C4.875 6.00398 6.67687 8.33331 9 8.33331Z" fill="#212121"/>
</g>
</svg>
