<svg width="17" height="17" viewBox="0 0 17 17" fill="none" xmlns="http://www.w3.org/2000/svg">
<g clip-path="url(#clip0_1_345)">
<path d="M10.625 0.53125H2.125C1.70231 0.53125 1.29693 0.699162 0.998049 0.998049C0.699162 1.29693 0.53125 1.70231 0.53125 2.125V7.4375C0.53125 7.86019 0.699162 8.26557 0.998049 8.56445C1.29693 8.86334 1.70231 9.03125 2.125 9.03125H3.71875V12.2188L6.90625 9.03125H10.625C11.0477 9.03125 11.4531 8.86334 11.752 8.56445C12.0508 8.26557 12.2187 7.86019 12.2188 7.4375V2.125C12.2187 1.70231 12.0508 1.29693 11.752 0.998049C11.4531 0.699162 11.0477 0.53125 10.625 0.53125V0.53125Z" stroke="#444444" stroke-linecap="round" stroke-linejoin="round"/>
<path d="M6.90625 13.2812H10.0938L13.2812 16.4688V13.2812H14.875C15.2977 13.2812 15.7031 13.1133 16.002 12.8145C16.3008 12.5156 16.4688 12.1102 16.4688 11.6875V6.375C16.4687 5.95231 16.3008 5.54693 16.002 5.24805C15.7031 4.94916 15.2977 4.78125 14.875 4.78125H14.3438" stroke="#444444" stroke-linecap="round" stroke-linejoin="round"/>
</g>
<defs>
<clipPath id="clip0_1_345">
<rect width="17" height="17" fill="white"/>
</clipPath>
</defs>
</svg>
