<svg width="20" height="20" viewBox="0 0 20 20" fill="none" xmlns="http://www.w3.org/2000/svg">
<g clip-path="url(#clip0_1_3098)">
<path d="M19.082 9.84379H17.1289V8.96875C17.1289 7.89527 16.3798 6.99176 15.3711 6.74117V0.585938C15.3711 0.262344 15.1088 0 14.7852 0H0.917969C0.594375 0 0.332031 0.262344 0.332031 0.585938V16.6406C0.332031 16.9642 0.594375 17.2266 0.917969 17.2266H9.94141V17.7067C9.94141 18.9713 10.9718 20 12.2383 20H17.3711C18.6376 20 19.668 18.9713 19.668 17.7067V10.4297C19.668 10.1061 19.4056 9.84379 19.082 9.84379ZM15.957 8.96875V9.84379H13.6523V8.96875C13.6523 8.34844 14.1693 7.84375 14.8047 7.84375C15.4401 7.84375 15.957 8.3484 15.957 8.96875ZM1.50391 16.0547V1.17188H14.1992V6.75141C13.2104 7.01539 12.4805 7.90918 12.4805 8.96871V9.84375H10.5273C10.2037 9.84375 9.94141 10.1061 9.94141 10.4297V16.0547H1.50391ZM18.4961 17.7067C18.4961 18.3251 17.9914 18.8281 17.3711 18.8281H12.2383C11.618 18.8281 11.1133 18.3251 11.1133 17.7067V11.0157H12.4805V12.5586C12.4805 12.8822 12.7428 13.1445 13.0664 13.1445C13.39 13.1445 13.6523 12.8822 13.6523 12.5586V11.0157H15.957V12.5586C15.957 12.8822 16.2194 13.1445 16.543 13.1445C16.8666 13.1445 17.1289 12.8822 17.1289 12.5586V11.0157H18.4961V17.7067Z" fill="black" fill-opacity="0.47"/>
<path d="M4.42898 2.53035L3.76305 3.24571L3.71848 3.19028C3.51574 2.93805 3.14691 2.89785 2.89468 3.10063C2.64246 3.30332 2.6023 3.67215 2.805 3.92438L3.27375 4.50762C3.38035 4.6402 3.53922 4.71997 3.70918 4.72614C3.71633 4.72637 3.7234 4.72653 3.73051 4.72653C3.89281 4.72653 4.04828 4.65911 4.15934 4.53985L5.28664 3.32891C5.50719 3.09207 5.49391 2.72129 5.25703 2.50078C5.02031 2.28028 4.64949 2.29352 4.42898 2.53035Z" fill="black" fill-opacity="0.47"/>
<path d="M7.20703 4.12109H12.4414C12.765 4.12109 13.0273 3.85875 13.0273 3.53516C13.0273 3.21156 12.765 2.94922 12.4414 2.94922H7.20703C6.88344 2.94922 6.62109 3.21156 6.62109 3.53516C6.62109 3.85875 6.88344 4.12109 7.20703 4.12109Z" fill="black" fill-opacity="0.47"/>
<path d="M4.42898 6.08504L3.76305 6.80039L3.71848 6.74497C3.51574 6.49274 3.14691 6.45258 2.89468 6.65532C2.64246 6.85805 2.6023 7.22684 2.805 7.47907L3.27375 8.06231C3.38035 8.19489 3.53922 8.27466 3.70918 8.28083C3.71633 8.28106 3.7234 8.28122 3.73051 8.28122C3.89281 8.28122 4.04828 8.2138 4.15934 8.09454L5.28664 6.8836C5.50719 6.64676 5.49391 6.27598 5.25703 6.05547C5.02031 5.83496 4.64949 5.84821 4.42898 6.08504Z" fill="black" fill-opacity="0.47"/>
<path d="M7.20703 7.67578H10.4882C10.8118 7.67578 11.0741 7.41344 11.0741 7.08984C11.0741 6.76625 10.8118 6.50391 10.4882 6.50391H7.20703C6.88344 6.50391 6.62109 6.76625 6.62109 7.08984C6.62109 7.41344 6.88344 7.67578 7.20703 7.67578Z" fill="black" fill-opacity="0.47"/>
<path d="M4.42898 9.63973L3.76305 10.3551L3.71848 10.2997C3.51574 10.0474 3.14691 10.0073 2.89468 10.21C2.64246 10.4127 2.6023 10.7815 2.805 11.0338L3.27375 11.617C3.38035 11.7496 3.53922 11.8293 3.70918 11.8355C3.71633 11.8358 3.7234 11.8359 3.73051 11.8359C3.89281 11.8359 4.04828 11.7685 4.15934 11.6492L5.28664 10.4383C5.50719 10.2014 5.49391 9.83067 5.25703 9.61016C5.02031 9.38965 4.64949 9.40289 4.42898 9.63973Z" fill="black" fill-opacity="0.47"/>
<path d="M8.18348 10.0586H7.20703C6.88344 10.0586 6.62109 10.3209 6.62109 10.6445C6.62109 10.9681 6.88344 11.2305 7.20703 11.2305H8.18348C8.50707 11.2305 8.76941 10.9681 8.76941 10.6445C8.76941 10.3209 8.50707 10.0586 8.18348 10.0586Z" fill="black" fill-opacity="0.47"/>
</g>
<defs>
<clipPath id="clip0_1_3098">
<rect width="20" height="20" fill="white"/>
</clipPath>
</defs>
</svg>
