<svg width="25" height="25" viewBox="0 0 25 25" fill="none" xmlns="http://www.w3.org/2000/svg">
<path d="M12.5208 3.03125C9.07283 3.03125 6.27074 5.83333 6.27074 9.28125V12.2917C6.27074 12.9271 5.99991 13.8958 5.67699 14.4375L4.47908 16.4271C3.73949 17.6562 4.24991 19.0208 5.60408 19.4792C10.0937 20.9792 14.9374 20.9792 19.427 19.4792C20.6874 19.0625 21.2395 17.5729 20.552 16.4271L19.3541 14.4375C19.0416 13.8958 18.7708 12.9271 18.7708 12.2917V9.28125C18.7708 5.84375 15.9583 3.03125 12.5208 3.03125Z" stroke="#292D32" stroke-width="2" stroke-miterlimit="10" stroke-linecap="round"/>
<path d="M14.4479 3.33325C14.125 3.2395 13.7917 3.16659 13.4479 3.12492C12.4479 2.99992 11.4896 3.07284 10.5938 3.33325C10.8958 2.56242 11.6458 2.02075 12.5208 2.02075C13.3958 2.02075 14.1458 2.56242 14.4479 3.33325Z" stroke="#292D32" stroke-width="2" stroke-miterlimit="10" stroke-linecap="round" stroke-linejoin="round"/>
<path d="M15.6459 19.8542C15.6459 21.573 14.2396 22.9792 12.5209 22.9792C11.6667 22.9792 10.875 22.6251 10.3125 22.0626C9.75004 21.5001 9.39587 20.7084 9.39587 19.8542" stroke="#292D32" stroke-width="2" stroke-miterlimit="10"/>
<circle cx="18" cy="6" r="3" fill="#E76D40"/>
</svg>
