<svg width="20" height="20" viewBox="0 0 20 20" fill="none" xmlns="http://www.w3.org/2000/svg">
<g clip-path="url(#clip0_1_2985)">
<path fill-rule="evenodd" clip-rule="evenodd" d="M9.99999 3.33378C8.66421 3.33378 7.58134 4.41665 7.58134 5.75243C7.58134 7.08822 8.66421 8.17108 9.99999 8.17108C11.3358 8.17108 12.4186 7.08822 12.4186 5.75243C12.4186 4.41665 11.3358 3.33378 9.99999 3.33378ZM5.91467 5.75243C5.91467 3.49617 7.74373 1.66711 9.99999 1.66711C12.2562 1.66711 14.0853 3.49617 14.0853 5.75243C14.0853 8.00869 12.2562 9.83775 9.99999 9.83775C7.74373 9.83775 5.91467 8.00869 5.91467 5.75243Z" fill="#C0C0C0"/>
<path fill-rule="evenodd" clip-rule="evenodd" d="M7.9315 12.8254C5.39192 12.8254 3.33329 14.884 3.33329 17.4236V17.4995C3.33329 17.9597 2.9602 18.3328 2.49996 18.3328C2.03972 18.3328 1.66663 17.9597 1.66663 17.4995V17.4236C1.66663 13.9635 4.47145 11.1587 7.9315 11.1587H12.0684C15.5285 11.1587 18.3333 13.9635 18.3333 17.4236V17.4995C18.3333 17.9597 17.9602 18.3328 17.5 18.3328C17.0397 18.3328 16.6666 17.9597 16.6666 17.4995V17.4236C16.6666 14.884 14.608 12.8254 12.0684 12.8254H7.9315Z" fill="#C0C0C0"/>
</g>
<defs>
<clipPath id="clip0_1_2985">
<rect width="20" height="20" fill="white"/>
</clipPath>
</defs>
</svg>
