<svg width="16" height="16" viewBox="0 0 16 16" fill="none" xmlns="http://www.w3.org/2000/svg">
<path d="M15 3C15 3.53043 14.7893 4.03914 14.4142 4.41421C14.0391 4.78929 13.5304 5 13 5C12.4696 5 11.9609 4.78929 11.5858 4.41421C11.2107 4.03914 11 3.53043 11 3C11 2.46957 11.2107 1.96086 11.5858 1.58579C11.9609 1.21071 12.4696 1 13 1C13.5304 1 14.0391 1.21071 14.4142 1.58579C14.7893 1.96086 15 2.46957 15 3Z" fill="#212121" fill-opacity="0.41"/>
<path d="M15 13C15 13.5304 14.7893 14.0391 14.4142 14.4142C14.0391 14.7893 13.5304 15 13 15C12.4696 15 11.9609 14.7893 11.5858 14.4142C11.2107 14.0391 11 13.5304 11 13C11 12.4696 11.2107 11.9609 11.5858 11.5858C11.9609 11.2107 12.4696 11 13 11C13.5304 11 14.0391 11.2107 14.4142 11.5858C14.7893 11.9609 15 12.4696 15 13Z" fill="#212121" fill-opacity="0.41"/>
<path d="M5 8C5 8.53043 4.78929 9.03914 4.41421 9.41421C4.03914 9.78929 3.53043 10 3 10C2.46957 10 1.96086 9.78929 1.58579 9.41421C1.21071 9.03914 1 8.53043 1 8C1 7.46957 1.21071 6.96086 1.58579 6.58579C1.96086 6.21071 2.46957 6 3 6C3.53043 6 4.03914 6.21071 4.41421 6.58579C4.78929 6.96086 5 7.46957 5 8Z" fill="#212121" fill-opacity="0.41"/>
<path d="M13 3L3 8L13 13" stroke="#212121" stroke-opacity="0.41"/>
</svg>
