<svg width="28" height="28" viewBox="0 0 28 28" fill="none" xmlns="http://www.w3.org/2000/svg">
<g clip-path="url(#clip0_1_2314)">
<path d="M27.3069 5.69608C27.6843 5.69608 27.9931 5.38726 28 5.0098V0.693137C28 0.308824 27.6912 0 27.3069 0H22.9902C22.6127 0 22.3039 0.308824 22.3039 0.693137V2.19608H5.69608V0.693137C5.69608 0.315686 5.38726 0.00686275 5.0098 0H0.693137C0.315686 0 0.00686275 0.308824 0 0.693137V5.0098C0 5.38726 0.308824 5.69608 0.693137 5.69608H2.19608V22.3039H0.693137C0.315686 22.3039 0.00686275 22.6127 0 22.9902V27.3069C0 27.6843 0.308824 27.9931 0.693137 28H5.0098C5.38726 28 5.69608 27.6912 5.69608 27.3069V25.8039H22.3039V27.3069C22.3039 27.6843 22.6127 27.9931 22.9902 28H27.3069C27.6843 28 27.9931 27.6912 28 27.3069V22.9902C28 22.6127 27.6912 22.3039 27.3069 22.3039H25.8039V5.69608H27.3069ZM1.37255 4.32353V1.37255H4.32353V4.32353H1.37255ZM4.32353 26.6275H1.37255V23.6765H4.32353V26.6275ZM22.3039 22.9902V24.4314H5.69608V22.9902C5.69608 22.6127 5.38726 22.3039 5.0098 22.3039H3.56863V5.69608H5.0098C5.38726 5.69608 5.69608 5.38726 5.69608 5.0098V3.56863H22.3039V5.0098C22.3039 5.38726 22.6127 5.69608 22.9902 5.69608H24.4314V22.3039H22.9902C22.6127 22.3039 22.3039 22.6127 22.3039 22.9902ZM26.6275 23.6765V26.6275H23.6765V23.6765H26.6275ZM23.6765 4.32353V1.37255H26.6275V4.32353H23.6765Z" fill="#2F3571"/>
</g>
<defs>
<clipPath id="clip0_1_2314">
<rect width="28" height="28" fill="white"/>
</clipPath>
</defs>
</svg>
