<svg width="36" height="36" viewBox="0 0 36 36" fill="none" xmlns="http://www.w3.org/2000/svg">
<g clip-path="url(#clip0_95_465)">
<path opacity="0.963" fill-rule="evenodd" clip-rule="evenodd" d="M16.1367 -0.0351562C21.3398 -0.0351562 26.543 -0.0351562 31.7461 -0.0351562C31.7461 0.667969 31.7461 1.37109 31.7461 2.07422C33.1523 2.07422 34.5586 2.07422 35.9648 2.07422C35.9648 11.4961 35.9648 20.918 35.9648 30.3398C28.1367 30.3281 20.3086 30.3398 12.4805 30.375C11.31 32.2601 10.1147 34.1234 8.89453 35.9648C8.84763 35.9648 8.80081 35.9648 8.75391 35.9648C5.7298 31.677 3.11652 27.1301 0.914062 22.3242C0.487623 21.2686 0.171217 20.1905 -0.0351562 19.0898C-0.0351562 18.5273 -0.0351562 17.9648 -0.0351562 17.4023C0.726764 13.0896 3.25801 10.4998 7.55859 9.63281C9.01659 9.43545 10.4345 9.58781 11.8125 10.0898C11.8477 7.41804 11.8594 4.7462 11.8477 2.07422C13.2773 2.07422 14.7071 2.07422 16.1367 2.07422C16.1367 1.37109 16.1367 0.667969 16.1367 -0.0351562ZM18.3867 2.14453C22.1133 2.14453 25.8398 2.14453 29.5664 2.14453C29.5664 2.84766 29.5664 3.55078 29.5664 4.25391C30.9727 4.25391 32.3789 4.25391 33.7852 4.25391C33.7852 12.1992 33.7852 20.1445 33.7852 28.0898C30.9023 28.0898 28.0195 28.0898 25.1367 28.0898C25.1367 26.6367 25.1367 25.1836 25.1367 23.7305C24.4102 23.7305 23.6836 23.7305 22.957 23.7305C22.957 25.1836 22.957 26.6367 22.957 28.0898C19.91 28.1016 16.8632 28.0898 13.8164 28.0547C15.2755 25.5933 16.4592 23.0034 17.3672 20.2852C18.0859 16.6044 16.9843 13.6045 14.0625 11.2852C14.0273 8.9415 14.0156 6.59777 14.0273 4.25391C15.4805 4.25391 16.9336 4.25391 18.3867 4.25391C18.3867 3.55078 18.3867 2.84766 18.3867 2.14453ZM8.40234 11.707C11.323 11.7308 13.4675 13.0199 14.8359 15.5742C15.5433 17.1626 15.6136 18.7798 15.0469 20.4258C14.1433 22.7017 13.0886 24.9048 11.8828 27.0352C10.8868 28.7461 9.85563 30.4336 8.78906 32.0977C6.87679 29.1651 5.14242 26.1182 3.58594 22.957C2.96324 21.6748 2.49448 20.3389 2.17969 18.9492C2.06305 15.888 3.36383 13.6732 6.08203 12.3047C6.83682 11.9938 7.61027 11.7946 8.40234 11.707ZM8.75391 16.2773C10.4595 16.5653 11.104 17.5496 10.6875 19.2305C9.93396 20.4662 8.91443 20.7591 7.62891 20.1094C6.41081 18.9649 6.41081 17.8165 7.62891 16.6641C7.98652 16.4551 8.36149 16.3262 8.75391 16.2773Z" fill="#595959"/>
<path opacity="0.958" fill-rule="evenodd" clip-rule="evenodd" d="M18.7383 6.85547C20.1679 6.85547 21.5977 6.85547 23.0273 6.85547C23.0273 7.58201 23.0273 8.30862 23.0273 9.03516C21.5977 9.03516 20.1679 9.03516 18.7383 9.03516C18.7383 8.30862 18.7383 7.58201 18.7383 6.85547Z" fill="#595959"/>
<path opacity="0.958" fill-rule="evenodd" clip-rule="evenodd" d="M25.0664 6.85547C26.4961 6.85547 27.9258 6.85547 29.3555 6.85547C29.3555 7.58201 29.3555 8.30862 29.3555 9.03516C27.9258 9.03516 26.4961 9.03516 25.0664 9.03516C25.0664 8.30862 25.0664 7.58201 25.0664 6.85547Z" fill="#595959"/>
<path opacity="0.958" fill-rule="evenodd" clip-rule="evenodd" d="M18.7383 11.0742C20.1679 11.0742 21.5977 11.0742 23.0273 11.0742C23.0273 11.8008 23.0273 12.5274 23.0273 13.2539C21.5977 13.2539 20.1679 13.2539 18.7383 13.2539C18.7383 12.5274 18.7383 11.8008 18.7383 11.0742Z" fill="#595959"/>
<path opacity="0.958" fill-rule="evenodd" clip-rule="evenodd" d="M25.0664 11.0742C26.4961 11.0742 27.9258 11.0742 29.3555 11.0742C29.3555 11.8008 29.3555 12.5274 29.3555 13.2539C27.9258 13.2539 26.4961 13.2539 25.0664 13.2539C25.0664 12.5274 25.0664 11.8008 25.0664 11.0742Z" fill="#595959"/>
<path opacity="0.961" fill-rule="evenodd" clip-rule="evenodd" d="M8.54299 14.0977C10.7777 14.1422 12.2425 15.2203 12.9375 17.332C13.3379 19.6604 12.4824 21.3361 10.3711 22.3594C8.13299 23.051 6.36348 22.4298 5.06252 20.4961C4.07601 18.3149 4.48617 16.4516 6.29299 14.9062C6.98298 14.446 7.73299 14.1764 8.54299 14.0977ZM8.75392 16.2773C8.36151 16.3262 7.98653 16.4551 7.62892 16.6641C6.41082 17.8165 6.41082 18.9649 7.62892 20.1094C8.91445 20.7591 9.93398 20.4662 10.6875 19.2305C11.104 17.5496 10.4596 16.5653 8.75392 16.2773Z" fill="#595959"/>
<path opacity="0.958" fill-rule="evenodd" clip-rule="evenodd" d="M18.7383 15.2227C20.1679 15.2227 21.5977 15.2227 23.0273 15.2227C23.0273 15.9492 23.0273 16.6758 23.0273 17.4023C21.5977 17.4023 20.1679 17.4023 18.7383 17.4023C18.7383 16.6758 18.7383 15.9492 18.7383 15.2227Z" fill="#595959"/>
<path opacity="0.958" fill-rule="evenodd" clip-rule="evenodd" d="M25.0664 15.2227C26.4961 15.2227 27.9258 15.2227 29.3555 15.2227C29.3555 15.9492 29.3555 16.6758 29.3555 17.4023C27.9258 17.4023 26.4961 17.4023 25.0664 17.4023C25.0664 16.6758 25.0664 15.9492 25.0664 15.2227Z" fill="#595959"/>
<path opacity="0.958" fill-rule="evenodd" clip-rule="evenodd" d="M18.7383 19.4414C20.1679 19.4414 21.5977 19.4414 23.0273 19.4414C23.0273 20.1679 23.0273 20.8946 23.0273 21.6211C21.5977 21.6211 20.1679 21.6211 18.7383 21.6211C18.7383 20.8946 18.7383 20.1679 18.7383 19.4414Z" fill="#595959"/>
<path opacity="0.958" fill-rule="evenodd" clip-rule="evenodd" d="M25.0664 19.4414C26.4961 19.4414 27.9258 19.4414 29.3555 19.4414C29.3555 20.1679 29.3555 20.8946 29.3555 21.6211C27.9258 21.6211 26.4961 21.6211 25.0664 21.6211C25.0664 20.8946 25.0664 20.1679 25.0664 19.4414Z" fill="#595959"/>
</g>
<defs>
<clipPath id="clip0_95_465">
<rect width="36" height="36" fill="white"/>
</clipPath>
</defs>
</svg>
